<svg width="13" height="13" viewBox="0 0 13 13" fill="none" xmlns="http://www.w3.org/2000/svg">
<circle cx="6.5" cy="6.5" r="6.5" fill="#CABDFC"/>
<path d="M6.76916 9.054C6.37316 9.054 6.01016 8.964 5.68016 8.784C5.35616 8.598 5.09516 8.325 4.89716 7.965C4.70516 7.605 4.60916 7.155 4.60916 6.615C4.60916 6.075 4.70216 5.625 4.88816 5.265C5.08016 4.905 5.33816 4.635 5.66216 4.455C5.99216 4.275 6.36116 4.185 6.76916 4.185C7.23716 4.185 7.65116 4.287 8.01116 4.491C8.37116 4.695 8.65616 4.98 8.86616 5.346C9.07616 5.706 9.18116 6.129 9.18116 6.615C9.18116 7.101 9.07616 7.527 8.86616 7.893C8.65616 8.259 8.37116 8.544 8.01116 8.748C7.65116 8.952 7.23716 9.054 6.76916 9.054ZM4.24016 10.746V4.23H5.06816V5.517L5.01416 6.624L5.10416 7.731V10.746H4.24016ZM6.69716 8.298C7.00316 8.298 7.27616 8.229 7.51616 8.091C7.76216 7.953 7.95416 7.758 8.09216 7.506C8.23616 7.248 8.30816 6.951 8.30816 6.615C8.30816 6.273 8.23616 5.979 8.09216 5.733C7.95416 5.481 7.76216 5.286 7.51616 5.148C7.27616 5.01 7.00316 4.941 6.69716 4.941C6.39716 4.941 6.12416 5.01 5.87816 5.148C5.63816 5.286 5.44616 5.481 5.30216 5.733C5.16416 5.979 5.09516 6.273 5.09516 6.615C5.09516 6.951 5.16416 7.248 5.30216 7.506C5.44616 7.758 5.63816 7.953 5.87816 8.091C6.12416 8.229 6.39716 8.298 6.69716 8.298Z" fill="#F2EFFE"/>
</svg>
