<?xml version="1.0" encoding="UTF-8"?>
<svg xmlns="http://www.w3.org/2000/svg" xmlns:xlink="http://www.w3.org/1999/xlink" viewBox="0 0 187 191.02">
  <defs>
    <style>
      .cls-1 {
        fill: url(#_Безымянный_градиент_50);
        opacity: .37;
      }

      .cls-1, .cls-2, .cls-3, .cls-4, .cls-5, .cls-6 {
        stroke-width: 0px;
      }

      .cls-1, .cls-7, .cls-8, .cls-9, .cls-10 {
        mix-blend-mode: multiply;
      }

      .cls-11, .cls-12, .cls-13, .cls-14, .cls-8, .cls-15, .cls-16, .cls-17, .cls-9 {
        stroke-linecap: round;
        stroke-linejoin: round;
      }

      .cls-11, .cls-8, .cls-15, .cls-9 {
        stroke: #2e272d;
      }

      .cls-11, .cls-15 {
        fill: #382e37;
      }

      .cls-12, .cls-18, .cls-19, .cls-20, .cls-2, .cls-21 {
        fill: none;
      }

      .cls-12, .cls-17 {
        stroke: #514151;
      }

      .cls-22 {
        isolation: isolate;
      }

      .cls-18 {
        stroke-width: 4.25px;
      }

      .cls-18, .cls-19, .cls-20, .cls-21 {
        stroke: #d59fff;
        stroke-miterlimit: 10;
      }

      .cls-13 {
        fill: #c499c6;
        opacity: .17;
        stroke: #c499c6;
      }

      .cls-13, .cls-23 {
        mix-blend-mode: screen;
      }

      .cls-14, .cls-16 {
        stroke: #3a2e3a;
      }

      .cls-14, .cls-17 {
        fill: #514151;
      }

      .cls-19 {
        stroke-width: 4px;
      }

      .cls-20 {
        stroke-width: 3px;
      }

      .cls-7, .cls-9 {
        opacity: .06;
      }

      .cls-21 {
        stroke-width: 3.27px;
      }

      .cls-8, .cls-9 {
        fill: #2e272d;
      }

      .cls-3 {
        fill: #ffbe8d;
      }

      .cls-24 {
        opacity: .96;
      }

      .cls-25 {
        clip-path: url(#clippath);
      }

      .cls-26 {
        opacity: .76;
      }

      .cls-15 {
        stroke-width: .98px;
      }

      .cls-16 {
        fill: #604f5f;
      }

      .cls-27, .cls-17, .cls-5 {
        mix-blend-mode: overlay;
      }

      .cls-17 {
        opacity: .16;
      }

      .cls-4 {
        fill: #d59fff;
      }

      .cls-5 {
        fill: url(#_Безымянный_градиент_58);
        opacity: .44;
      }

      .cls-6 {
        fill: url(#_Безымянный_градиент_59);
        mix-blend-mode: color-burn;
        opacity: .13;
      }
    </style>
    <clipPath id="clippath">
      <path class="cls-2" d="m14.26,191.02H0c-.08-4.83-.15-9.66-.23-14.49V0h187v191.02h-14.49"/>
    </clipPath>
    <linearGradient id="_Безымянный_градиент_50" data-name="Безымянный градиент 50" x1="91.19" y1="-2.63" x2="92.13" y2="216.58" gradientUnits="userSpaceOnUse">
      <stop offset="0" stop-color="#ffffda" stop-opacity="0"/>
      <stop offset=".23" stop-color="#bfbde3" stop-opacity=".26"/>
      <stop offset=".61" stop-color="#5c58f2" stop-opacity=".65"/>
      <stop offset=".88" stop-color="#1e18fb" stop-opacity=".9"/>
      <stop offset="1" stop-color="#0600ff"/>
    </linearGradient>
    <linearGradient id="_Безымянный_градиент_59" data-name="Безымянный градиент 59" x1="-34.82" y1="98.2" x2="214.5" y2="98.2" gradientTransform="translate(-8.37 188.04) rotate(-90)" gradientUnits="userSpaceOnUse">
      <stop offset="0" stop-color="#9ffcea"/>
      <stop offset=".13" stop-color="#93e1e2"/>
      <stop offset=".41" stop-color="#749ed0"/>
      <stop offset=".8" stop-color="#4434b3"/>
      <stop offset=".99" stop-color="#2e01a6"/>
    </linearGradient>
    <radialGradient id="_Безымянный_градиент_58" data-name="Безымянный градиент 58" cx="83.36" cy="85.48" fx="139.7" fy="36.14" r="135.38" gradientUnits="userSpaceOnUse">
      <stop offset=".01" stop-color="#ffbe8d"/>
      <stop offset=".12" stop-color="#f7b293"/>
      <stop offset=".32" stop-color="#e493a4"/>
      <stop offset=".58" stop-color="#c560c1"/>
      <stop offset=".89" stop-color="#9b1be7"/>
      <stop offset="1" stop-color="#8b00f7"/>
    </radialGradient>
  </defs>
  <g class="cls-22">
    <g id="_Слой_7" data-name="Слой 7">
      <g class="cls-25">
        <rect class="cls-4" x="-3.05" y="-13.99" width="195.39" height="208.48"/>
        <rect class="cls-1" x="-10.29" y="-27.06" width="203.82" height="248.82"/>
        <g class="cls-24">
          <g class="cls-10">
            <path class="cls-3" d="m185.51,114.4c-8.63,5.3-30.7-25.99-40.12-24.49s-21.09,38-30.55,35.74-3.06-39.9-11.06-45.7-41.56,12.31-46.86,3.68,25.99-30.7,24.49-40.12c-1.55-9.76-38-21.09-35.74-30.55s39.9-3.06,45.7-11.06-12.31-41.56-3.68-46.86c8.63-5.3,30.7,25.99,40.12,24.49s21.09-38,30.55-35.74,3.06,39.9,11.06,45.7,41.56-12.31,46.86-3.68c5.3,8.63-25.99,30.7-24.49,40.12s38,21.09,35.74,30.55-39.9,3.06-45.7,11.06,12.31,41.56,3.68,46.86Z"/>
          </g>
          <g class="cls-27">
            <path class="cls-3" d="m203.95,144.45c-11.88,7.29-42.28-35.79-55.25-33.73s-29.04,52.34-42.07,49.22-4.22-54.94-15.23-62.93c-10.63-7.7-57.24,16.95-64.53,5.07-7.29-11.88,35.79-42.28,33.73-55.25S8.27,17.79,11.38,4.76c3.12-13.03,54.94-4.22,62.93-15.23,7.7-10.63-16.95-57.24-5.07-64.53,11.88-7.29,42.28,35.79,55.25,33.73s29.04-52.34,42.07-49.22,4.22,54.94,15.23,62.93c10.63,7.7,57.24-16.95,64.53-5.07s-35.79,42.28-33.73,55.25,52.34,29.04,49.22,42.07c-3.12,13.03-54.94,4.22-62.93,15.23s16.95,57.24,5.07,64.53Z"/>
            <path class="cls-21" d="m203.95,144.45c-11.88,7.29-42.28-35.79-55.25-33.73s-29.04,52.34-42.07,49.22-4.22-54.94-15.23-62.93c-10.63-7.7-57.24,16.95-64.53,5.07-7.29-11.88,35.79-42.28,33.73-55.25S8.27,17.79,11.38,4.76c3.12-13.03,54.94-4.22,62.93-15.23,7.7-10.63-16.95-57.24-5.07-64.53,11.88-7.29,42.28,35.79,55.25,33.73s29.04-52.34,42.07-49.22,4.22,54.94,15.23,62.93c10.63,7.7,57.24-16.95,64.53-5.07s-35.79,42.28-33.73,55.25,52.34,29.04,49.22,42.07c-3.12,13.03-54.94,4.22-62.93,15.23s16.95,57.24,5.07,64.53Z"/>
          </g>
          <g class="cls-27">
            <path class="cls-19" d="m233.67,192.86c-17.13,10.51-60.94-51.58-79.63-48.61s-41.85,75.43-60.63,70.94c-18.78-4.49-6.08-79.19-21.96-90.7-15.32-11.1-82.49,24.43-93.01,7.31-10.51-17.13,51.58-60.94,48.61-79.63C23.99,32.8-48.37,10.32-43.87-8.46S35.32-14.53,46.83-30.41c11.1-15.32-24.43-82.49-7.31-93.01,17.13-10.51,60.94,51.58,79.63,48.61,19.37-3.08,41.85-75.43,60.63-70.94,18.78,4.49,6.08,79.19,21.96,90.7,15.32,11.1,82.49-24.43,93.01-7.31,10.51,17.13-51.58,60.94-48.61,79.63s75.43,41.85,70.94,60.63c-4.49,18.78-79.19,6.08-90.7,21.96-11.1,15.32,24.43,82.49,7.31,93.01Z"/>
          </g>
          <g class="cls-27">
            <path class="cls-18" d="m280.1,268.49c-25.32,15.54-90.09-76.25-117.71-71.86s-61.87,111.5-89.63,104.86c-27.76-6.64-8.98-117.06-32.46-134.07-22.64-16.41-121.94,36.12-137.49,10.8-15.54-25.32,76.25-90.09,71.86-117.71C-29.86,31.89-136.82-1.35-130.18-29.11-123.54-56.87-13.12-38.09,3.89-61.56c16.41-22.64-36.12-121.94-10.8-137.49,25.32-15.54,90.09,76.25,117.71,71.86,28.63-4.55,61.87-111.5,89.63-104.86,27.76,6.64,8.98,117.06,32.46,134.07s121.94-36.12,137.49-10.8c15.54,25.32-76.25,90.09-71.86,117.71,4.55,28.63,111.5,61.87,104.86,89.63s-117.06,8.98-134.07,32.46c-16.41,22.64,36.12,121.94,10.8,137.49Z"/>
          </g>
          <g class="cls-27">
            <path class="cls-3" d="m163.63,78.76c-4.77,2.93-16.97-14.36-22.18-13.54s-11.66,21.01-16.89,19.76-1.69-22.05-6.11-25.26c-4.27-3.09-22.97,6.8-25.9,2.04-2.93-4.77,14.36-16.97,13.54-22.18s-21.01-11.66-19.76-16.89,22.05-1.69,25.26-6.11-6.8-22.97-2.04-25.9c4.77-2.93,16.97,14.36,22.18,13.54s11.66-21.01,16.89-19.76,1.69,22.05,6.11,25.26,22.97-6.8,25.9-2.04-14.36,16.97-13.54,22.18,21.01,11.66,19.76,16.89-22.05,1.69-25.26,6.11,6.8,22.97,2.04,25.9Z"/>
            <path class="cls-20" d="m163.63,78.76c-4.77,2.93-16.97-14.36-22.18-13.54s-11.66,21.01-16.89,19.76-1.69-22.05-6.11-25.26c-4.27-3.09-22.97,6.8-25.9,2.04-2.93-4.77,14.36-16.97,13.54-22.18s-21.01-11.66-19.76-16.89,22.05-1.69,25.26-6.11-6.8-22.97-2.04-25.9c4.77-2.93,16.97,14.36,22.18,13.54s11.66-21.01,16.89-19.76,1.69,22.05,6.11,25.26,22.97-6.8,25.9-2.04-14.36,16.97-13.54,22.18,21.01,11.66,19.76,16.89-22.05,1.69-25.26,6.11,6.8,22.97,2.04,25.9Z"/>
          </g>
          <g class="cls-23">
            <path class="cls-3" d="m154.53,63.94c-3.16,1.94-11.26-9.53-14.71-8.98s-7.73,13.94-11.2,13.11-1.12-14.63-4.06-16.76-15.24,4.51-17.19,1.35,9.53-11.26,8.98-14.71-13.94-7.73-13.11-11.2,14.63-1.12,16.76-4.06-4.51-15.24-1.35-17.19,11.26,9.53,14.71,8.98,7.73-13.94,11.2-13.11,1.12,14.63,4.06,16.76,15.24-4.51,17.19-1.35-9.53,11.26-8.98,14.71,13.94,7.73,13.11,11.2-14.63,1.12-16.76,4.06,4.51,15.24,1.35,17.19Z"/>
          </g>
        </g>
        <rect class="cls-6" x="-10.29" y="-26.46" width="200.25" height="249.33" transform="translate(179.68 196.41) rotate(180)"/>
        <g>
          <path class="cls-11" d="m137.17,128.38c-2.91,5.22-10.95,10.38-13.99,12.49-2.57,1.79-4.82,3.13-6.43,4.04.99,4.75,1.92,9.59,2.8,14.5,4.29,24,6.68,46.91,7.72,68.44-31.53-1.13-63.05-2.26-94.58-3.39,2.1-23.23,5.68-47.99,11.3-73.95,1.41-6.53,2.91-12.92,4.48-19.17-.51-2.49-1.04-6.31-.61-10.9,1.5-16.2,13.54-26.63,20.63-32.77,6.79-5.88,14.54-12.62,25.78-13.23,5.74-.31,10.78,1.06,13.06,1.7,2.65.74,10.71,3.25,17.47,9.16,11.56,10.11,19.65,30.07,12.38,43.08Z"/>
          <path class="cls-9" d="m59.45,118.94c3.77,4.95,17.72,15.45,28.62,10.05,2.64-1.31,5.82-3.91,8.27-7.04,1.51-1.93,1.77-2.83,2.67-4.16,4.19-6.17,11.25-5.37,16.66-8.9,8.06-5.26,10.78-19.01,7.8-21.2-6.28-4.61-48.64,31.9-55.76,27.18-.41-.27-2.45-1.84-5.16-1.76-.27,0-3.73-.02-4.5,1.77-.61,1.42.79,3.26,1.4,4.06Z"/>
          <g>
            <g>
              <path class="cls-16" d="m58.73,133.42c-.19.3-.3.64-.33.99-.11,1.4-.1,4.43,1.93,6.91,2.56,3.14,7.35,4.17,11.99,2.49.43-.16.8-.47,1.06-.85,21.04-31.43,42.09-62.87,63.13-94.3.2-.3.32-.64.36-.98.5-5.01,1.01-10.02,1.51-15.03.14-1.44-1.21-2.49-2.6-2.01l-14.37,4.97c-.47.16-.88.49-1.15.91-20.51,32.31-41.02,64.61-61.53,96.92Z"/>
              <path class="cls-14" d="m136.29,30.68c.06.17.24.65.75.99.47.31.94.32,1.12.32,1.13-1.81,1.79-3.29,1.45-3.56-.34-.27-1.71.71-3.33,2.26Z"/>
              <path class="cls-12" d="m121.44,37.02c.64,1.48,2.26,4.61,5.77,7.06,3.34,2.33,6.69,2.87,8.32,3.02"/>
            </g>
            <path class="cls-17" d="m139.69,28.56c-.13-.05-.93,2.75-2.03,2.77-.49,0-.88-.52-1.11-.89-.12,2.57-.47,9.14-1.42,14.17-.12.65-.36,1.83-1.29,2.43-1.7,1.09-4.67-.57-5.66-1.11-.93-.52-1.62-1.06-2.04-1.42.74,1.13,1.79,2.48,3.23,3.79.73.66,1.45,1.21,2.12,1.67-9.33,13.2-18.71,26.82-28.09,40.85-11.11,16.6-21.68,32.98-31.75,49.08-.35.28-.7.57-1.06.85-4.5,1.63-9.12.71-11.74-2.2.3.93.76,1.89,1.48,2.77,2.56,3.14,7.35,4.17,11.99,2.49.43-.16.8-.47,1.06-.85,21.04-31.43,42.09-62.87,63.13-94.3.2-.3.32-.64.36-.98.5-5.01,1.01-10.02,1.51-15.03.03-.3-.02-.57-.1-.82.29-.41.68-1.03,1.02-1.84.29-.71.47-1.38.41-1.41Z"/>
            <g class="cls-26">
              <path class="cls-13" d="m139.62,28.42c-.11-.15-1.02.34-1.13.41-.56.38-1.26.97-2.03,1.7-.22,0-.45.02-.68.1l-14.37,4.97c-.47.16-.88.49-1.15.91-20.51,32.31-41.02,64.61-61.53,96.92-.19.3-.3.64-.33.99-.08.93-.08,2.58.51,4.31-.1-.88-.08-1.65-.03-2.19.01-.18.05-.35.11-.52,0-.21.02-.41.03-.58.03-.35.14-.68.33-.99,20.51-32.31,41.02-64.61,61.53-96.92.27-.42.68-.75,1.15-.91l.36-.12c.43,1,.88,1.75,1.22,2.28.58.88,1.46,2,1.46,2h0c-1.33-1.87-1.58-2.56-1.58-2.56-.26-.78-.31-1.48-.31-1.94,4.4-1.54,8.81-3.08,13.21-4.62.1,0,.24,0,.34-.08.19-.16.07-.44.13-.74.03-.15.13-.41,1.47-1.25.23-.15.53-.33.89-.53.22-.23.46-.53.39-.62Z"/>
              <line class="cls-13" x1="113.47" y1="52.81" x2="107.31" y2="62.91"/>
              <line class="cls-13" x1="111.09" y1="60.62" x2="106.93" y2="67.32"/>
            </g>
          </g>
          <path class="cls-11" d="m47.69,123.87c-7.76-8.79-10.43-20.46-6.69-30.36,2.88-7.62,8.66-11.83,11.26-13.48,1.58-2.82,5.28-8.51,12.34-12.72,5.37-3.21,10.45-4.22,13.48-4.58,1.3-.96,11.23-8.01,22.62-4.67,7.03,2.06,11.38,7.13,12.74,8.74,1.29,1.54,3.52,4.23,4.83,8.4.51,1.61,3.29,10.41-1.91,17.7-2.26,3.17-5.25,4.95-7.55,5.93.29-1.76.49-3.7.56-5.82.03-.88.02-1.73,0-2.54-.7-4.86-2.31-8.43-3.54-10.65-5.24-9.44-14.03-13.2-17.12-14.47-4.23-1.74-8.02-2.37-10.63-2.62,2.56.22,6.38.82,10.63,2.62,9.02,3.81,19.59,12.86,20.66,25.11.23,2.63.81,8.96-3.56,14.25-4.3,5.21-10.57,5.99-12.18,6.14.32-2.67.56-7.8-1.74-13.54-3.55-8.88-10.71-13.07-12.91-14.25,0,0-6.99-4.01-16.41-4.33-2.79-.09-4.9.19-4.9.19-2.49.33-5.42,1.11-5.42,1.1,0,0,0,0,0,0,2.93-.82,7.96-1.84,14.12-1.06,2.2.28,7.19.96,12.61,4.09,2.26,1.31,9.44,5.61,12.91,14.25,3.48,8.65,3.27,21.7-4.45,27.48-.75.56-6.51,4.73-12.42,2.23-4.33-1.83-7.2-6.61-7.3-12.15-1.45-.13-3.37-.53-5.16-1.76-2.03-1.39-3.12-3.49-3.18-3.43,0,0,1.39,1.52,3.18,3.43-.42.36-1.23.97-2.42,1.27-1.7.43-3.1-.04-3.61-.24"/>
          <g class="cls-7">
            <path class="cls-8" d="m118.35,77c-.09,3.02-.84,6.46-3.1,9.61-2.26,3.16-5.22,4.93-7.52,5.92-.54,1.95-1.46,3.99-3.04,5.9-4.04,4.89-9.82,5.88-11.84,6.11-.38,5.56-2.34,10.84-6.53,13.97-.75.56-6.51,4.73-12.42,2.23-4.15-1.76-6.94-6.21-7.26-11.45-.07-.24-.13-.48-.19-.72-1.43-.14-3.27-.56-5.01-1.74-.42.36-1.23.97-2.42,1.27-1.7.43-3.1-.04-3.61-.24l-3.42,3.77c.41,1.18.64,2.46.64,3.79,0,1.26-.21,2.46-.57,3.59l4.11-4.53c.51.2,1.92.67,3.61.24,1.19-.3,2-.91,2.42-1.27,1.8,1.23,3.71,1.63,5.16,1.76.1,5.55,2.97,10.32,7.3,12.15,5.9,2.5,11.67-1.67,12.42-2.23,4.19-3.13,6.16-8.41,6.53-13.97,2.02-.23,7.8-1.21,11.84-6.11,1.57-1.9,2.5-3.94,3.04-5.9,2.3-.99,5.27-2.76,7.52-5.92,4.29-6.01,3.15-13.04,2.33-16.23Zm-59.32,33s.05.04.1.11c-.06-.07-.1-.11-.1-.11Z"/>
          </g>
          <path class="cls-15" d="m96.34,121.95c4.85-13.92,11.36-20.07,16.62-23.07,2.78-1.59,6.78-3.19,7.64-6.82.93-3.92-2.78-5.73-3.88-12.49-.33-2.04-1.1-7.28,2.01-12.26.25-.4,4.76-7.45,9.68-6.97,7.76.76,11.48,19.8,13.4,29.67,2.54,13.02,3.77,19.54,1.39,27.6-5.1,17.24-21.96,25.31-26.46,27.3"/>
          <path class="cls-9" d="m128.41,60.34c-.21-.02-.42,0-.63,0,.78,2.63,1.45,5.36,2.02,7.94.77,3.46,1.26,6.05,1.44,7.04,4.3,23.47,7.39,31.2,4.79,39.17-1.19,3.66-5.21,12.4-22.39,18.83-.96.62-2.3,1.66-3.31,3.31-1.97,3.21-1.53,6.78-1.37,8.09.71,5.89,3.55,32.28,7.72,68.44-27.51-.99-55.01-1.97-82.52-2.96-.55,4.81-1.05,9.58-1.48,14.27,31.53,1.13,63.05,2.26,94.58,3.39-1.04-21.53-3.43-44.44-7.72-68.44-.88-4.91-1.81-9.75-2.8-14.5,4.5-1.99,21.36-10.06,26.46-27.3,2.38-8.06,1.15-14.58-1.39-27.6-1.93-9.87-5.64-28.92-13.4-29.67Z"/>
        </g>
        <rect class="cls-5" x="-26.8" y="-47.83" width="220.33" height="266.63"/>
      </g>
    </g>
  </g>
</svg>