<?xml version="1.0" encoding="UTF-8"?>
<svg xmlns="http://www.w3.org/2000/svg" xmlns:xlink="http://www.w3.org/1999/xlink" viewBox="0 0 160 129">
  <defs>
    <style>
      .cls-1 {
        stroke-width: 1.07px;
      }

      .cls-1, .cls-2, .cls-3, .cls-4, .cls-5 {
        stroke-linecap: round;
        stroke-linejoin: round;
      }

      .cls-1, .cls-3, .cls-5 {
        fill: #fff;
      }

      .cls-1, .cls-5 {
        stroke: #e5dbd1;
      }

      .cls-2 {
        fill: #ea4262;
        stroke: #a8164b;
      }

      .cls-6 {
        opacity: .48;
      }

      .cls-6, .cls-7, .cls-8, .cls-9, .cls-10, .cls-11, .cls-12, .cls-13 {
        stroke-width: 0px;
      }

      .cls-6, .cls-9 {
        mix-blend-mode: multiply;
      }

      .cls-6, .cls-10 {
        fill: #f7d74f;
      }

      .cls-7 {
        fill: url(#_Безымянный_градиент_41);
        opacity: .56;
      }

      .cls-7, .cls-13 {
        mix-blend-mode: overlay;
      }

      .cls-14 {
        isolation: isolate;
      }

      .cls-3 {
        stroke: #000;
      }

      .cls-8 {
        fill: none;
      }

      .cls-15 {
        opacity: .11;
      }

      .cls-9 {
        fill: url(#_Безымянный_градиент_31);
        opacity: .12;
      }

      .cls-4 {
        fill: #00007a;
        stroke: #00007a;
      }

      .cls-11 {
        fill: #ffabbf;
        mix-blend-mode: screen;
        opacity: .39;
      }

      .cls-16 {
        clip-path: url(#clippath);
      }

      .cls-12 {
        fill: #ffcad9;
      }

      .cls-13 {
        fill: url(#_Безымянный_градиент_43);
        opacity: .55;
      }
    </style>
    <clipPath id="clippath">
      <rect class="cls-8" width="160" height="129"/>
    </clipPath>
    <linearGradient id="_Безымянный_градиент_31" data-name="Безымянный градиент 31" x1="-42.06" y1="51.97" x2="178.43" y2="51.97" gradientUnits="userSpaceOnUse">
      <stop offset="0" stop-color="#ffffda"/>
      <stop offset=".1" stop-color="#fcf5d4"/>
      <stop offset=".28" stop-color="#f6ddc6"/>
      <stop offset=".49" stop-color="#ebb4ae"/>
      <stop offset=".75" stop-color="#dc7d8e"/>
      <stop offset="1" stop-color="#cc3f6a"/>
    </linearGradient>
    <linearGradient id="_Безымянный_градиент_41" data-name="Безымянный градиент 41" x1="72.53" y1="7.62" x2="77.59" y2="137.5" gradientTransform="translate(0 0)" gradientUnits="userSpaceOnUse">
      <stop offset="0" stop-color="#ffffda" stop-opacity=".31"/>
      <stop offset=".21" stop-color="#f2ddbd" stop-opacity=".41"/>
      <stop offset=".59" stop-color="#d28371" stop-opacity=".67"/>
      <stop offset="1" stop-color="#a80f0f"/>
    </linearGradient>
    <radialGradient id="_Безымянный_градиент_43" data-name="Безымянный градиент 43" cx="70.22" cy="55.19" fx="70.22" fy="64.21" r="124.11" gradientTransform="translate(0 2.88) scale(1 .95)" gradientUnits="userSpaceOnUse">
      <stop offset="0" stop-color="#ffffda"/>
      <stop offset=".12" stop-color="#fdf8d7"/>
      <stop offset=".29" stop-color="#f7e6d1"/>
      <stop offset=".48" stop-color="#eec8c7"/>
      <stop offset=".7" stop-color="#e19fb9"/>
      <stop offset=".93" stop-color="#d16ba6"/>
      <stop offset="1" stop-color="#cc5aa1"/>
    </radialGradient>
  </defs>
  <g class="cls-14">
    <g id="_Слой_6" data-name="Слой 6">
      <g class="cls-16">
        <g>
          <rect class="cls-10" x="-14.25" y="-21.39" width="180.13" height="153.16"/>
          <g>
            <rect class="cls-6" x="6.38" y="-28.77" width="8.65" height="181.65"/>
            <rect class="cls-6" x="21.82" y="-28.77" width="8.65" height="181.65"/>
            <rect class="cls-6" x="37.27" y="-28.77" width="8.65" height="181.65"/>
            <rect class="cls-6" x="52.71" y="-28.77" width="8.65" height="181.65"/>
            <rect class="cls-6" x="68.16" y="-28.77" width="8.65" height="181.65"/>
            <rect class="cls-6" x="83.61" y="-28.77" width="8.65" height="181.65"/>
            <rect class="cls-6" x="99.05" y="-28.77" width="8.65" height="181.65"/>
            <rect class="cls-6" x="114.5" y="-28.77" width="8.65" height="181.65"/>
            <rect class="cls-6" x="129.94" y="-28.77" width="8.65" height="181.65"/>
            <rect class="cls-6" x="145.39" y="-28.77" width="8.65" height="181.65"/>
          </g>
          <rect class="cls-9" x="-42.06" y="-52.51" width="220.49" height="208.96" transform="translate(120.15 -16.22) rotate(90)"/>
          <g>
            <path class="cls-5" d="m11.2,114.31c0-5.78-5.69-10.47-12.71-10.47s-12.71,4.69-12.71,10.47c0,3.92,2.61,7.32,6.48,9.12.23.52.51,1.05.86,1.58,2.21,3.45,5.49,4.73,6.6,5.11-.84-.56-3.33-2.37-4.45-5.7,1.03.22,2.11.35,3.22.35,7.02,0,12.71-4.69,12.71-10.47Z"/>
            <path class="cls-5" d="m13.06,67.51c-14.76,0-26.73,9.82-26.73,21.93,0,9.2,6.91,17.08,16.7,20.33-.09.76-.12,1.81.11,3,.39,2.01,1.3,3.44,1.89,4.21-.23-.55-.87-2.35-.17-4.37.32-.92.81-1.59,1.19-2.01,2.23.5,4.58.77,7,.77,14.76,0,26.73-9.82,26.73-21.93s-11.97-21.93-26.73-21.93Z"/>
            <ellipse class="cls-1" cx="67.65" cy="122.38" rx="11.84" ry="8.47"/>
            <ellipse class="cls-5" cx="145.51" cy="79.97" rx="22.27" ry="18.27"/>
            <path class="cls-5" d="m157.97,102.34c0-11.24-11.1-20.35-24.8-20.35s-24.8,9.11-24.8,20.35,11.1,20.35,24.8,20.35c3.68,0,7.18-.66,10.32-1.85.34.44.7,1.07.85,1.89.36,2-.84,3.48-1.02,3.69.88-.63,2.19-1.75,3.31-3.5,1.08-1.7,1.56-3.35,1.78-4.53,5.82-3.72,9.56-9.52,9.56-16.04Z"/>
            <path class="cls-5" d="m95.24,78.57c-14.76,0-26.73,10.15-26.73,22.67,0,8.22,5.16,15.42,12.88,19.39.06.94.29,2.13.99,3.36,1,1.74,2.41,2.62,3.04,2.96-.29-.25-1.47-1.3-1.69-3.09-.1-.86.05-1.56.23-2.07,3.43,1.35,7.25,2.12,11.28,2.12,14.76,0,26.73-10.15,26.73-22.67s-11.97-22.67-26.73-22.67Z"/>
            <ellipse class="cls-5" cx="119.27" cy="120.56" rx="18.47" ry="14.4"/>
            <path class="cls-5" d="m163.15,93.72c0-5.78-5.69-10.47-12.71-10.47s-12.71,4.69-12.71,10.47c0,3.92,2.61,7.32,6.48,9.12.23.52.51,1.05.86,1.58,2.21,3.45,5.49,4.73,6.6,5.11-.84-.56-3.33-2.37-4.45-5.7,1.03.22,2.11.35,3.22.35,7.02,0,12.71-4.69,12.71-10.47Z"/>
            <ellipse class="cls-5" cx="44.78" cy="113.34" rx="23.73" ry="18.17"/>
            <path class="cls-5" d="m63.81,88.59c0-7.59-7.48-13.75-16.71-13.75s-16.71,6.16-16.71,13.75,7.48,13.75,16.71,13.75c.42,0,.84-.03,1.26-.05.24.5.5,1.22.58,2.12.17,1.89-.58,3.34-.92,3.91,1.11-1.15,2.13-2.24,3.15-3.33.57-.61,1.23-1.33,1.65-2.48.16-.44.24-.83.29-1.09,6.26-1.99,10.7-6.97,10.7-12.82Z"/>
            <path class="cls-5" d="m86.45,103.13c0-8.05-8.2-14.58-18.31-14.58s-18.31,6.53-18.31,14.58,8.2,14.58,18.31,14.58c.87,0,1.72-.06,2.55-.16.18.74.33,1.83.12,3.13-.23,1.44-.8,2.5-1.18,3.08.62-.55,1.71-1.64,2.45-3.37.53-1.22.7-2.35.75-3.18,7.83-1.65,13.61-7.32,13.61-14.07Z"/>
          </g>
          <g class="cls-15">
            <path class="cls-4" d="m11.2,114.31c0-5.78-5.69-10.47-12.71-10.47s-12.71,4.69-12.71,10.47c0,3.92,2.61,7.32,6.48,9.12.23.52.51,1.05.86,1.58,2.21,3.45,5.49,4.73,6.6,5.11-.84-.56-3.33-2.37-4.45-5.7,1.03.22,2.11.35,3.22.35,7.02,0,12.71-4.69,12.71-10.47Z"/>
            <path class="cls-4" d="m13.06,67.51c-14.76,0-26.73,9.82-26.73,21.93,0,9.2,6.91,17.08,16.7,20.33-.09.76-.12,1.81.11,3,.39,2.01,1.3,3.44,1.89,4.21-.23-.55-.87-2.35-.17-4.37.32-.92.81-1.59,1.19-2.01,2.23.5,4.58.77,7,.77,14.76,0,26.73-9.82,26.73-21.93s-11.97-21.93-26.73-21.93Z"/>
            <ellipse class="cls-4" cx="67.65" cy="122.38" rx="11.84" ry="8.47"/>
            <ellipse class="cls-4" cx="145.51" cy="79.97" rx="22.27" ry="18.27"/>
            <path class="cls-4" d="m157.97,102.34c0-11.24-11.1-20.35-24.8-20.35s-24.8,9.11-24.8,20.35,11.1,20.35,24.8,20.35c3.68,0,7.18-.66,10.32-1.85.34.44.7,1.07.85,1.89.36,2-.84,3.48-1.02,3.69.88-.63,2.19-1.75,3.31-3.5,1.08-1.7,1.56-3.35,1.78-4.53,5.82-3.72,9.56-9.52,9.56-16.04Z"/>
            <path class="cls-4" d="m95.24,78.57c-14.76,0-26.73,10.15-26.73,22.67,0,8.22,5.16,15.42,12.88,19.39.06.94.29,2.13.99,3.36,1,1.74,2.41,2.62,3.04,2.96-.29-.25-1.47-1.3-1.69-3.09-.1-.86.05-1.56.23-2.07,3.43,1.35,7.25,2.12,11.28,2.12,14.76,0,26.73-10.15,26.73-22.67s-11.97-22.67-26.73-22.67Z"/>
            <ellipse class="cls-4" cx="119.27" cy="120.56" rx="18.47" ry="14.4"/>
            <path class="cls-4" d="m163.15,93.72c0-5.78-5.69-10.47-12.71-10.47s-12.71,4.69-12.71,10.47c0,3.92,2.61,7.32,6.48,9.12.23.52.51,1.05.86,1.58,2.21,3.45,5.49,4.73,6.6,5.11-.84-.56-3.33-2.37-4.45-5.7,1.03.22,2.11.35,3.22.35,7.02,0,12.71-4.69,12.71-10.47Z"/>
            <ellipse class="cls-4" cx="44.78" cy="113.34" rx="23.73" ry="18.17"/>
            <path class="cls-4" d="m63.81,88.59c0-7.59-7.48-13.75-16.71-13.75s-16.71,6.16-16.71,13.75,7.48,13.75,16.71,13.75c.42,0,.84-.03,1.26-.05.24.5.5,1.22.58,2.12.17,1.89-.58,3.34-.92,3.91,1.11-1.15,2.13-2.24,3.15-3.33.57-.61,1.23-1.33,1.65-2.48.16-.44.24-.83.29-1.09,6.26-1.99,10.7-6.97,10.7-12.82Z"/>
            <path class="cls-4" d="m86.45,103.13c0-8.05-8.2-14.58-18.31-14.58s-18.31,6.53-18.31,14.58,8.2,14.58,18.31,14.58c.87,0,1.72-.06,2.55-.16.18.74.33,1.83.12,3.13-.23,1.44-.8,2.5-1.18,3.08.62-.55,1.71-1.64,2.45-3.37.53-1.22.7-2.35.75-3.18,7.83-1.65,13.61-7.32,13.61-14.07Z"/>
          </g>
          <rect class="cls-7" x="-21.71" y="-35.25" width="192" height="176.14"/>
          <g>
            <path class="cls-3" d="m22.82,85.2c-8.77,0-18.4,6.74-18.31,15.28.04,4.06,2.27,7.6,5.38,10.26-.18.36-.28.75-.28,1.16,0,1.63,1.59,2.96,3.55,2.96.86,0,1.64-.27,2.26-.69,1.85.8,3.75,1.32,5.54,1.51.7.08,1.31.09,1.87.08,7.66-.17,18.31-6.32,18.31-15.28,0-8.44-8.2-15.28-18.31-15.28Z"/>
            <ellipse class="cls-3" cx="12.51" cy="118.48" rx="1.91" ry="2.05" transform="translate(-93.3 63.72) rotate(-56.61)"/>
            <ellipse class="cls-3" cx="16.06" cy="122.16" rx=".97" ry="1.03" transform="translate(-81.64 47.09) rotate(-44.97)"/>
            <g>
              <path class="cls-2" d="m27.55,93.97c.94-.57,2.25-1.36,3.4-.91,1.86.73,2.15,4.22,1.87,6.35-.08.6-.36,2.32-2.48,5.5-1.13,1.69-3,4.12-5.92,6.58-4.13-2.18-6.67-4.79-8.08-6.49-2.83-3.42-3.09-5.6-3.14-6.15-.17-1.77.1-5.02,2.1-5.9,1.44-.63,3.08.27,3.86.69,3.02,1.66,3.94,4.96,4.18,5.95.43-1.32,1.54-4,4.21-5.63Z"/>
              <path class="cls-11" d="m25.54,99.44c1.05-.98,1.97-1.84,2.63-1.58.9.36.85,2.72.52,4.22-.3,1.35-.86,2.3-1.41,3.12-.64.96-1.7,2.33-3.35,3.73-2.34-1.24-3.78-2.71-4.58-3.68-1.38-1.66-1.69-3.12-1.78-3.48-.09-.37-.81-3.33.34-4.01.93-.55,2.57.71,3.03,1.06,1.49,1.14,2.11,2.62,2.37,3.37.42-.69,1.13-1.72,2.23-2.74Z"/>
              <path class="cls-12" d="m25.97,96.73c-.06-.06,1.03-1.84,2.99-2.58.49-.19,1.43-.45,1.55-.23.07.13-.16.37-.22.43-.35.38-.78.39-1.41.59-.36.11-.59.23-1.06.45-1.24.6-1.81,1.39-1.86,1.35Z"/>
              <path class="cls-12" d="m14.84,94.97c-.11-.15.38-.87,1.12-1.16,1.25-.49,2.69.47,2.64.63-.03.1-.62-.15-1.67-.03-1.28.15-1.97.72-2.08.56Z"/>
            </g>
          </g>
          <g>
            <path class="cls-3" d="m121.12,29.39c-4.9-14.62-22.25-25.42-42.91-25.42-24.46,0-44.29,15.15-44.29,33.84s19.83,33.84,44.29,33.84,44.29-15.15,44.29-33.84c0-1.53-.15-3.04-.4-4.51,1.28-1.19,2.57-2.56,3.8-4.15,6.44-8.32,7.15-17.2,7.24-20.52-.12,1.13-1.8,14.88-12.03,20.76Z"/>
            <g>
              <path class="cls-2" d="m54.64,17.2c-3.98,5.04,7.99,21.07,14.51,28.43,6.75,7.63,13.6,12.7,18.47,15.84,3.52-5.27,8.07-13.03,11.78-23.04,2.32-6.26,8.01-21.57,3.83-24.01-3.02-1.77-10.65,3.55-14.76,8.59-2.07,2.54-3.25,5.02-3.94,6.79-1.71-2.56-5.78-7.91-13.06-11.11-3.86-1.7-13.96-5.14-16.84-1.5Z"/>
              <path class="cls-12" d="m96.05,19.36c.35-1.96,2.58-4.13,4.47-3.6,1.1.31,2.04,1.52,1.8,2.16-.3.8-2.17.03-4.08,1.32-1.12.76-1.58,1.78-1.98,1.62-.33-.14-.32-.96-.22-1.5Z"/>
              <path class="cls-12" d="m57.18,18.52c1.27-1.29,4.3-.85,4.63.08.27.77-1.47,1.37-2.4,3.44-1.33,2.96.33,5.99.08,6.07-.4.13-4.62-7.25-2.32-9.59Z"/>
              <path class="cls-12" d="m60.37,23.87c-.29.04-.76,2.58.32,3.2.59.34,1.56.05,1.64-.31.07-.29-.49-.45-1.09-1.23-.71-.92-.71-1.68-.87-1.66Z"/>
              <path class="cls-11" d="m62.04,24.31c-3.02,3.82,6.05,15.95,10.99,21.53,5.11,5.78,10.3,9.62,13.98,12,2.66-3.99,6.11-9.87,8.92-17.44,1.76-4.74,6.07-16.33,2.9-18.18-2.29-1.34-8.06,2.69-11.17,6.5-1.57,1.93-2.46,3.8-2.98,5.14-1.29-1.94-4.38-5.99-9.89-8.42-2.92-1.28-10.57-3.89-12.75-1.14Z"/>
            </g>
            <g>
              <path class="cls-2" d="m62.86,48.42s4.26-6.3,5.94-8.07c2.19-2.3,4.72-4.97,6.15-4.35,2.13.93,1.26,8.9-1.04,14.9-2.72,7.09-7.51,11.62-10.6,14.05-3.14-2.33-9.3-7.62-11.67-16.29-1.44-5.27-1.7-12.74.58-13.58,1.29-.48,3.07,1.32,4.71,2.99,3.65,3.7,5.22,7.83,5.94,10.35Z"/>
              <path class="cls-11" d="m62.3,51.61s2.86-4.07,3.99-5.21c1.47-1.48,3.18-3.2,4.14-2.79,1.44.61.88,5.77-.65,9.65-1.81,4.58-5.04,7.5-7.12,9.06-2.14-1.52-6.31-4.97-7.95-10.6-.99-3.42-1.19-8.26.34-8.79.87-.31,2.08.87,3.2,1.95,2.48,2.41,3.56,5.09,4.05,6.73Z"/>
              <path class="cls-12" d="m72.42,38.26c.41-.37,1.06-.49,1.19-.3.16.23-.46.92-.86,1.36-.39.43-.6.67-.73.61-.22-.1-.21-1.12.39-1.66Z"/>
              <path class="cls-12" d="m52.96,36.89c-.18-.14-.69.14-.99.48-.45.51-.49,1.25-.27,1.78.1.24.34.66.54.63.19-.03.19-.44.4-1.35.26-1.07.47-1.42.31-1.54Z"/>
              <path class="cls-12" d="m71.34,39.25c-.45-.27-2.95,2.93-2.79,3.09.05.05.27-.23,1.35-1.02.84-.61,1.27-.86,1.44-1.41.01-.04.16-.56,0-.66Z"/>
            </g>
          </g>
          <rect class="cls-13" x="-34.94" y="-44.37" width="210.32" height="200.14"/>
        </g>
      </g>
    </g>
  </g>
</svg>