<?xml version="1.0" encoding="UTF-8"?>
<svg xmlns="http://www.w3.org/2000/svg" xmlns:xlink="http://www.w3.org/1999/xlink" viewBox="0 0 392.31 413">
  <defs>
    <style>
      .cls-1, .cls-2, .cls-3, .cls-4, .cls-5, .cls-6, .cls-7, .cls-8, .cls-9, .cls-10, .cls-11, .cls-12, .cls-13, .cls-14, .cls-15, .cls-16, .cls-17, .cls-18, .cls-19, .cls-20, .cls-21, .cls-22, .cls-23, .cls-24, .cls-25, .cls-26, .cls-27, .cls-28, .cls-29, .cls-30, .cls-31, .cls-32, .cls-33, .cls-34, .cls-35, .cls-36, .cls-37 {
        stroke-linecap: round;
        stroke-linejoin: round;
      }

      .cls-1, .cls-3, .cls-4, .cls-5, .cls-9, .cls-10, .cls-11, .cls-12, .cls-13, .cls-15, .cls-17, .cls-18, .cls-21, .cls-22, .cls-24, .cls-25, .cls-27, .cls-28, .cls-29, .cls-30, .cls-31, .cls-34, .cls-37 {
        stroke: #2e272d;
      }

      .cls-1, .cls-3, .cls-5, .cls-15, .cls-17, .cls-29, .cls-34, .cls-37 {
        fill: #2e272d;
      }

      .cls-1, .cls-3, .cls-15, .cls-24, .cls-29, .cls-34, .cls-37 {
        stroke-width: 1px;
      }

      .cls-1, .cls-5, .cls-38 {
        opacity: .19;
      }

      .cls-2, .cls-39 {
        fill: #ffe8cc;
        stroke: #f4d8ba;
      }

      .cls-2, .cls-39, .cls-40 {
        stroke-width: .83px;
      }

      .cls-41 {
        fill: #ff9fcb;
      }

      .cls-41, .cls-42, .cls-43, .cls-44, .cls-45, .cls-46, .cls-47, .cls-48 {
        stroke-width: 0px;
      }

      .cls-3 {
        opacity: .12;
      }

      .cls-49 {
        opacity: .5;
      }

      .cls-42 {
        fill: url(#_Безымянный_градиент_23);
        opacity: .65;
      }

      .cls-42, .cls-45, .cls-48 {
        mix-blend-mode: multiply;
      }

      .cls-4, .cls-9, .cls-10, .cls-11, .cls-12, .cls-13, .cls-18, .cls-21, .cls-22, .cls-24, .cls-25, .cls-27, .cls-28, .cls-30, .cls-31 {
        fill: #382e37;
      }

      .cls-5 {
        stroke-width: .75px;
      }

      .cls-50 {
        clip-path: url(#clippath-2);
      }

      .cls-51 {
        isolation: isolate;
      }

      .cls-43 {
        fill: #a4896d;
      }

      .cls-44 {
        fill: #272425;
      }

      .cls-6 {
        stroke-width: 1.39px;
      }

      .cls-6, .cls-26 {
        fill: #3c2e42;
        stroke: #3c2e42;
      }

      .cls-45 {
        fill: url(#_Безымянный_градиент_13);
        opacity: .21;
      }

      .cls-7 {
        stroke-width: 1.05px;
      }

      .cls-7, .cls-14, .cls-16 {
        fill: #ff5050;
        stroke: #ff5050;
      }

      .cls-8 {
        stroke-width: .41px;
      }

      .cls-8, .cls-46, .cls-23, .cls-32, .cls-35, .cls-36 {
        fill: none;
      }

      .cls-8, .cls-23, .cls-32 {
        stroke: #918070;
      }

      .cls-9 {
        stroke-width: 1.19px;
      }

      .cls-10 {
        stroke-width: .93px;
      }

      .cls-11 {
        stroke-width: .97px;
      }

      .cls-12 {
        stroke-width: .97px;
      }

      .cls-13 {
        stroke-width: 1.07px;
      }

      .cls-52 {
        clip-path: url(#clippath-1);
      }

      .cls-14 {
        stroke-width: .75px;
      }

      .cls-53 {
        stroke-width: .68px;
      }

      .cls-53, .cls-54, .cls-39, .cls-55, .cls-56, .cls-57, .cls-58, .cls-40, .cls-59 {
        stroke-miterlimit: 10;
      }

      .cls-53, .cls-54, .cls-55, .cls-57, .cls-59 {
        fill: #fff3e6;
        stroke: #ffe7d2;
      }

      .cls-54 {
        stroke-width: .49px;
      }

      .cls-15 {
        opacity: .16;
      }

      .cls-16 {
        stroke-width: .56px;
      }

      .cls-60 {
        opacity: .28;
      }

      .cls-60, .cls-47 {
        mix-blend-mode: overlay;
      }

      .cls-47 {
        fill: url(#_Безымянный_градиент_20);
        opacity: .39;
      }

      .cls-18 {
        stroke-width: 1.15px;
      }

      .cls-19 {
        fill: #d0b69a;
      }

      .cls-19, .cls-20, .cls-33 {
        stroke: #836b5a;
        stroke-width: .9px;
      }

      .cls-20 {
        fill: #f4d8b3;
      }

      .cls-21 {
        stroke-width: 1.07px;
      }

      .cls-22 {
        stroke-width: .94px;
      }

      .cls-23 {
        stroke-width: .39px;
      }

      .cls-61 {
        clip-path: url(#clippath);
      }

      .cls-62 {
        opacity: .53;
      }

      .cls-25 {
        stroke-width: 1.04px;
      }

      .cls-55 {
        stroke-width: .62px;
      }

      .cls-63, .cls-37 {
        opacity: .14;
      }

      .cls-56 {
        stroke-width: .62px;
      }

      .cls-56, .cls-58 {
        fill: #8e4d80;
      }

      .cls-56, .cls-58, .cls-35, .cls-36 {
        stroke: #703f67;
      }

      .cls-26 {
        stroke-width: .69px;
      }

      .cls-57 {
        stroke-width: .57px;
      }

      .cls-27 {
        stroke-width: 1.13px;
      }

      .cls-28 {
        stroke-width: .91px;
      }

      .cls-29 {
        opacity: .24;
      }

      .cls-58 {
        stroke-width: .46px;
      }

      .cls-48 {
        fill: url(#_Безымянный_градиент_25);
        opacity: .34;
      }

      .cls-30 {
        stroke-width: 1.07px;
      }

      .cls-31 {
        stroke-width: .96px;
      }

      .cls-40 {
        fill: #5d4495;
        stroke: #513f82;
      }

      .cls-32 {
        stroke-width: .4px;
      }

      .cls-33 {
        fill: #e5c9ae;
      }

      .cls-35 {
        stroke-width: .62px;
      }

      .cls-36 {
        stroke-width: .46px;
      }

      .cls-59 {
        stroke-width: .47px;
      }
    </style>
    <clipPath id="clippath">
      <rect class="cls-46" width="392.31" height="413"/>
    </clipPath>
    <radialGradient id="_Безымянный_градиент_23" data-name="Безымянный градиент 23" cx="207.99" cy="148.45" fx="215.26" fy="228.13" r="230.51" gradientTransform="translate(-53.07) scale(1.2 1)" gradientUnits="userSpaceOnUse">
      <stop offset=".01" stop-color="#ffefd9"/>
      <stop offset=".19" stop-color="#fdebd9"/>
      <stop offset=".32" stop-color="#f9e2db"/>
      <stop offset=".44" stop-color="#f1d1dd"/>
      <stop offset=".55" stop-color="#e6bae1"/>
      <stop offset=".66" stop-color="#d89ce6"/>
      <stop offset=".76" stop-color="#c778eb"/>
      <stop offset=".86" stop-color="#b34cf2"/>
      <stop offset=".95" stop-color="#9c1bfa"/>
      <stop offset="1" stop-color="#8f00ff"/>
    </radialGradient>
    <linearGradient id="_Безымянный_градиент_13" data-name="Безымянный градиент 13" x1="220.62" y1="-8.38" x2="223.05" y2="435.94" gradientUnits="userSpaceOnUse">
      <stop offset="0" stop-color="#ff7f00"/>
      <stop offset=".02" stop-color="#f47a05"/>
      <stop offset=".15" stop-color="#bf6221"/>
      <stop offset=".29" stop-color="#924e3a"/>
      <stop offset=".42" stop-color="#6c3e4d"/>
      <stop offset=".55" stop-color="#50315d"/>
      <stop offset=".67" stop-color="#3b2868"/>
      <stop offset=".8" stop-color="#2f226e"/>
      <stop offset=".93" stop-color="#2b2171"/>
    </linearGradient>
    <clipPath id="clippath-1">
      <path class="cls-46" d="m334.94,210.57l-8.94,10.31c-.27.31-.66.18-.88-.3l-10.63-23.74c-.21-.48-.17-1.12.1-1.43l8.94-10.31c.27-.31.66-.18.88.3l10.63,23.74c.21.48.17,1.12-.1,1.43Z"/>
    </clipPath>
    <clipPath id="clippath-2">
      <path class="cls-46" d="m206.43,55.44l-5-18.99c-.15-.58.14-1.31.65-1.65l25.33-16.75c.51-.34,1.04-.14,1.2.43l5,18.99c.15.58-.14,1.31-.65,1.65l-25.33,16.75c-.51.34-1.04.14-1.2-.43Z"/>
    </clipPath>
    <linearGradient id="_Безымянный_градиент_25" data-name="Безымянный градиент 25" x1="196.89" y1="5.73" x2="199.15" y2="418.79" gradientUnits="userSpaceOnUse">
      <stop offset=".01" stop-color="#fffad0"/>
      <stop offset=".16" stop-color="#dfdacf"/>
      <stop offset=".49" stop-color="#9089ce"/>
      <stop offset=".97" stop-color="#1208cc"/>
      <stop offset="1" stop-color="#0a00cc"/>
    </linearGradient>
    <radialGradient id="_Безымянный_градиент_20" data-name="Безымянный градиент 20" cx="178.51" cy="206.5" fx="178.51" fy="206.5" r="217.48" gradientTransform="translate(6.67 12.75) scale(1.08 .97)" gradientUnits="userSpaceOnUse">
      <stop offset="0" stop-color="#ffe7a4"/>
      <stop offset=".09" stop-color="#fddc9f"/>
      <stop offset=".26" stop-color="#f8be92"/>
      <stop offset=".48" stop-color="#ef8f7d"/>
      <stop offset=".74" stop-color="#e44d60"/>
      <stop offset="1" stop-color="#d80541"/>
    </radialGradient>
  </defs>
  <g class="cls-51">
    <g id="_Слой_10" data-name="Слой 10">
      <g class="cls-61">
        <g>
          <rect class="cls-41" x="-.96" y="-43.51" width="420.67" height="499.67"/>
          <rect class="cls-42" y="-22.9" width="403.51" height="471.69"/>
          <path class="cls-45" d="m199.21,438.11c-2.36.12,4.84-60.64-21.37-73.27-26.99-13-58.97,39.69-94.64,30.53-39.77-10.21-50.96-88.74-54.19-111.43-4.51-31.65-18.25-128.06,49.61-209.13C136.85,5.23,216.17-6.46,239.66-9.92c35.43-5.22,65.9-9.71,95.41,4.58,85.48,41.4,113.78,216.62,45.8,332.78-46.5,79.45-132.64,122.06-138.15,116.01-2.93-3.22,16.24-21.01,37.4-50.37,14.37-19.95,83.24-119.61,76.33-239.66-.96-16.72-8.7-151-77.09-172.49C201.73-43.48,108.76,97.12,99.99,110.67c-53.73,82.95-80.52,199.91-41.22,231.27,9.42,7.51,22.33,9.87,43.51,13.74,48.48,8.86,67.3-6.1,84.72,6.87,26.03,19.37,14.47,75.44,12.21,75.56Z"/>
          <g>
            <g>
              <path class="cls-55" d="m102.32,268.62l10.62,16.67c.32.51.17,1.06-.34,1.25l-25.33,9.11c-.51.18-1.18-.08-1.5-.58l-10.62-16.67c-.32-.51-.17-1.06.34-1.25l25.33-9.11c.51-.18,1.18.08,1.5.58Z"/>
              <g>
                <path class="cls-14" d="m87.98,291.5c-1.3-.1-3.07-.32-3.21-.74-.13-.39,1.08-.96,2.34-.91,1.39.05,2.53.79,2.96,1.09-.04.43-.18,1.08-.66,1.68-.8,1-2.3,1.47-2.63,1.16-.11-.11-.28-.49,1.2-2.28Z"/>
                <path class="cls-14" d="m93.72,283c-1.3-.1-3.07-.32-3.21-.74-.13-.39,1.08-.96,2.34-.91,1.39.05,2.53.79,2.96,1.09-.04.43-.18,1.08-.66,1.68-.8,1-2.3,1.47-2.63,1.16-.11-.11-.28-.49,1.2-2.28Z"/>
                <path class="cls-14" d="m100.2,273.16c-1.3-.1-3.07-.32-3.21-.74-.13-.39,1.08-.96,2.34-.91,1.39.05,2.53.79,2.96,1.09-.04.43-.18,1.08-.66,1.68-.8,1-2.3,1.47-2.63,1.16-.11-.11-.28-.49,1.2-2.28Z"/>
              </g>
            </g>
            <g>
              <path class="cls-59" d="m330.94,131.34l5.4,13.1c.16.4-.11.61-.61.48l-25.02-6.48c-.5-.13-1.04-.56-1.21-.95l-5.4-13.1c-.16-.4.11-.61.61-.48l25.02,6.48c.5.13,1.04.56,1.21.95Z"/>
              <g>
                <path class="cls-16" d="m312.38,136.65c-1.14-.62-2.68-1.5-2.7-1.78-.02-.25,1.21-.01,2.33.56,1.24.63,2.08,1.51,2.39,1.85-.15.2-.43.47-1.01.56-.96.16-2.44-.26-2.65-.56-.07-.1-.13-.37,1.64-.63Z"/>
                <path class="cls-16" d="m319.64,134.86c-1.14-.62-2.68-1.5-2.7-1.78-.02-.25,1.21-.01,2.33.56,1.24.63,2.08,1.51,2.39,1.85-.15.2-.43.47-1.01.56-.96.16-2.44-.26-2.65-.56-.07-.1-.13-.37,1.64-.63Z"/>
                <path class="cls-16" d="m327.91,132.71c-1.14-.62-2.68-1.5-2.7-1.78-.02-.25,1.21-.01,2.33.56,1.24.63,2.08,1.51,2.39,1.85-.15.2-.43.47-1.01.56-.96.16-2.44-.26-2.65-.56-.07-.1-.13-.37,1.64-.63Z"/>
              </g>
            </g>
            <g>
              <path class="cls-54" d="m290.85,395l13.13-4.91c.4-.15,1.09-.22,1.55-.15l22.85,3.16c.46.06.51.24.11.38l-13.13,4.91c-.4.15-1.09.22-1.55.15l-22.85-3.16c-.46-.06-.51-.24-.11-.38Z"/>
              <path class="cls-7" d="m309.52,394.28c.97.47,2.14,1.13,1.42,1.31-.65.17-2.87-.06-3.93-.5-1.16-.48-.72-1.1-.5-1.34.9-.12,2.32-.28,3.93-.31,2.7-.04,5,.31,4.68.52-.11.07-.73.25-5.6.31Z"/>
            </g>
            <g>
              <path class="cls-53" d="m113.86,324.19l20.89-4.85c.63-.15,1.34.23,1.57.83l11.72,30.24c.24.61-.09,1.22-.72,1.37l-20.89,4.85c-.63.15-1.34-.23-1.57-.83l-11.72-30.24c-.24-.61.09-1.22.72-1.37Z"/>
              <g>
                <path class="cls-6" d="m130.89,339.33c-1.77-1.8-4.27-4.14-5.01-3.73-.67.37.1,3,1.74,4.83,1.8,2.01,4.22,2.65,5.15,2.85.52-.69,1.2-1.84,1.39-3.42.31-2.64-.95-5.58-1.76-5.62-.28-.01-.99.3-1.5,5.09Z"/>
                <path class="cls-6" d="m130.36,337.8c-.37-1.17-.73-2.34-1.1-3.51-.27.02-.54.03-.8.05l1.9,3.47Z"/>
              </g>
            </g>
            <g>
              <path class="cls-57" d="m240.32,86.17l12.47,8.91c.38.27.83.08,1.02-.43l9.27-25.24c.19-.51.03-1.14-.35-1.41l-12.47-8.91c-.38-.27-.83-.08-1.02.43l-9.27,25.24c-.19.51-.03,1.14.35,1.41Z"/>
              <g>
                <path class="cls-26" d="m251.81,76.45c-.78.82-1.86,1.85-2.14,1.51-.25-.31.17-1.75.9-2.6.8-.94,1.77-.98,2.15-.97.17.48.39,1.25.39,2.2,0,1.59-.62,3.15-.94,3.06-.11-.03-.38-.31-.36-3.2Z"/>
                <path class="cls-26" d="m251.53,77.27c-.2.64-.39,1.28-.59,1.92-.1-.05-.21-.09-.31-.14l.9-1.78Z"/>
              </g>
              <g>
                <path class="cls-26" d="m244.03,83.01c-.78.82-1.86,1.85-2.14,1.51-.25-.31.17-1.75.9-2.6.8-.94,1.77-.98,2.15-.97.17.48.39,1.25.39,2.2,0,1.59-.62,3.15-.94,3.06-.11-.03-.38-.31-.36-3.2Z"/>
                <path class="cls-26" d="m243.75,83.84c-.2.64-.39,1.28-.59,1.92-.1-.05-.21-.09-.31-.14l.9-1.78Z"/>
              </g>
              <g>
                <path class="cls-26" d="m260.13,70.42c-.78.82-1.86,1.85-2.14,1.51-.25-.31.17-1.75.9-2.6.8-.94,1.77-.98,2.15-.97.17.48.39,1.25.39,2.2,0,1.59-.62,3.15-.94,3.06-.11-.03-.38-.31-.36-3.2Z"/>
                <path class="cls-26" d="m259.85,71.25c-.2.64-.39,1.28-.59,1.92-.1-.05-.21-.09-.31-.14l.9-1.78Z"/>
              </g>
              <g>
                <path class="cls-26" d="m250.9,63.83c-.78.82-1.86,1.85-2.14,1.51-.25-.31.17-1.75.9-2.6.8-.94,1.77-.98,2.15-.97.17.48.39,1.25.39,2.2,0,1.59-.62,3.15-.94,3.06-.11-.03-.38-.31-.36-3.2Z"/>
                <path class="cls-26" d="m250.63,64.66c-.2.64-.39,1.28-.59,1.92-.1-.05-.21-.09-.31-.14l.9-1.78Z"/>
              </g>
              <g>
                <path class="cls-26" d="m252.53,88.89c-.78.82-1.86,1.85-2.14,1.51-.25-.31.17-1.75.9-2.6.8-.94,1.77-.98,2.15-.97.17.48.39,1.25.39,2.2,0,1.59-.62,3.15-.94,3.06-.11-.03-.38-.31-.36-3.2Z"/>
                <path class="cls-26" d="m252.25,89.72c-.2.64-.39,1.28-.59,1.92-.1-.05-.21-.09-.31-.14l.9-1.78Z"/>
              </g>
            </g>
            <g class="cls-52">
              <path class="cls-58" d="m334.94,210.57l-8.94,10.31c-.27.31-.66.18-.88-.3l-10.63-23.74c-.21-.48-.17-1.12.1-1.43l8.94-10.31c.27-.31.66-.18.88.3l10.63,23.74c.21.48.17,1.12-.1,1.43Z"/>
              <path class="cls-58" d="m334.94,210.57l-8.94,10.31c-.27.31-.66.18-.88-.3l-10.63-23.74c-.21-.48-.17-1.12.1-1.43l8.94-10.31c.27-.31.66-.18.88.3l10.63,23.74c.21.48.17,1.12-.1,1.43Z"/>
              <g class="cls-60">
                <g>
                  <line class="cls-36" x1="323.53" y1="185.1" x2="325.73" y2="220.72"/>
                  <line class="cls-36" x1="325.3" y1="186.04" x2="327.39" y2="220.68"/>
                  <line class="cls-36" x1="327.17" y1="186.45" x2="329.27" y2="221.09"/>
                  <line class="cls-36" x1="328.97" y1="186.89" x2="331.06" y2="221.53"/>
                  <line class="cls-36" x1="330.67" y1="187.79" x2="332.76" y2="222.43"/>
                  <line class="cls-36" x1="332.09" y1="187.76" x2="334.18" y2="222.4"/>
                  <line class="cls-36" x1="316.55" y1="182.74" x2="318.64" y2="217.39"/>
                  <line class="cls-36" x1="318.34" y1="183.18" x2="320.43" y2="217.82"/>
                  <line class="cls-36" x1="320.04" y1="184.09" x2="322.13" y2="218.73"/>
                  <line class="cls-36" x1="321.71" y1="184.27" x2="323.81" y2="218.92"/>
                </g>
                <g>
                  <line class="cls-36" x1="314.97" y1="195.52" x2="335.16" y2="210.03"/>
                  <line class="cls-36" x1="314.42" y1="198.03" x2="334.22" y2="212.27"/>
                  <line class="cls-36" x1="314.07" y1="201.02" x2="333.86" y2="215.25"/>
                  <line class="cls-36" x1="313.75" y1="203.88" x2="333.55" y2="218.12"/>
                  <line class="cls-36" x1="313.74" y1="206.75" x2="333.54" y2="220.99"/>
                  <line class="cls-36" x1="313.27" y1="208.91" x2="333.07" y2="223.14"/>
                  <line class="cls-36" x1="315.27" y1="183.67" x2="335.06" y2="197.91"/>
                  <line class="cls-36" x1="314.96" y1="186.54" x2="334.75" y2="200.77"/>
                  <line class="cls-36" x1="314.95" y1="189.41" x2="334.74" y2="203.64"/>
                  <line class="cls-36" x1="314.52" y1="192.02" x2="334.32" y2="206.25"/>
                </g>
              </g>
            </g>
            <g class="cls-50">
              <path class="cls-56" d="m206.43,55.44l-5-18.99c-.15-.58.14-1.31.65-1.65l25.33-16.75c.51-.34,1.04-.14,1.2.43l5,18.99c.15.58-.14,1.31-.65,1.65l-25.33,16.75c-.51.34-1.04.14-1.2-.43Z"/>
              <path class="cls-56" d="m206.43,55.44l-5-18.99c-.15-.58.14-1.31.65-1.65l25.33-16.75c.51-.34,1.04-.14,1.2.43l5,18.99c.15.58-.14,1.31-.65,1.65l-25.33,16.75c-.51.34-1.04.14-1.2-.43Z"/>
              <g class="cls-60">
                <g>
                  <line class="cls-35" x1="233.61" y1="37.47" x2="201.69" y2="35.96"/>
                  <line class="cls-35" x1="232.01" y1="40.74" x2="200.99" y2="39.19"/>
                  <line class="cls-35" x1="230.82" y1="44.31" x2="199.8" y2="42.76"/>
                  <line class="cls-35" x1="229.65" y1="47.71" x2="198.63" y2="46.16"/>
                  <line class="cls-35" x1="228.11" y1="50.86" x2="197.09" y2="49.3"/>
                  <line class="cls-35" x1="227.51" y1="53.62" x2="196.49" y2="52.06"/>
                  <line class="cls-35" x1="238.75" y1="24.31" x2="207.73" y2="22.76"/>
                  <line class="cls-35" x1="237.57" y1="27.71" x2="206.55" y2="26.16"/>
                  <line class="cls-35" x1="236.04" y1="30.86" x2="205.01" y2="29.3"/>
                  <line class="cls-35" x1="235.13" y1="34.08" x2="204.11" y2="32.53"/>
                </g>
                <g>
                  <line class="cls-35" x1="228.35" y1="19.2" x2="206.8" y2="55.95"/>
                  <line class="cls-35" x1="226.4" y1="17.73" x2="205.28" y2="53.77"/>
                  <line class="cls-35" x1="223.97" y1="16.55" x2="202.84" y2="52.59"/>
                  <line class="cls-35" x1="221.62" y1="15.48" x2="200.49" y2="51.52"/>
                  <line class="cls-35" x1="219.13" y1="15" x2="198" y2="51.04"/>
                  <line class="cls-35" x1="217.47" y1="13.74" x2="196.34" y2="49.78"/>
                  <line class="cls-35" x1="238.51" y1="21.69" x2="217.38" y2="57.73"/>
                  <line class="cls-35" x1="236.16" y1="20.62" x2="215.03" y2="56.66"/>
                  <line class="cls-35" x1="233.67" y1="20.14" x2="212.54" y2="56.18"/>
                  <line class="cls-35" x1="231.58" y1="18.89" x2="210.46" y2="54.94"/>
                </g>
              </g>
            </g>
          </g>
          <rect class="cls-48" x="-7.63" y="-43.51" width="411.14" height="481.1"/>
          <g>
            <path class="cls-24" d="m138.72,236.13c-8.93-5.45-24.09-16.48-34.71-35.67-19.74-35.65-5.55-73.87,3.25-98.44,5.98-16.71,18.43-51.49,34.2-50.84,14.26.59,29.57,30.09,24.79,54.26-3.62,18.3-16.55,22.43-25.23,39.09-7.88,15.11-12.34,40.67,7.57,85.37"/>
            <path class="cls-15" d="m118.09,193.89c-22.49-33.98-11.36-73.2-4.53-98.39,1.91-7.06,4.68-17.26,8.38-26.86-6.42,11.09-11.48,25.21-14.68,34.16-8.8,24.57-22.99,62.79-3.25,98.44,10.63,19.19,25.78,30.21,34.71,35.67l9.86-6.22c-1.64-3.69-3.11-7.24-4.43-10.67-8.35-5.66-18.05-14.02-26.06-26.12Z"/>
            <path class="cls-5" d="m135.63,138.23c-3.21-.68-11.58,7.29-10.17,15.48,1.12,6.49,7.87,10.17,9.29,10.91.12-1.33.36-3.39.85-5.89,1.26-6.39,2.77-8.3,2.72-12.47-.01-1.07-.08-7.48-2.68-8.03Z"/>
            <g>
              <path class="cls-9" d="m220.65,229.66c2.74-6.1,14.83-33.22,17.04-43.99.3-1.46.46-2.81.55-3.6.6-5.17,1.47-12.7-2.71-16.3,0,0-.56-.48-1.33-.91-5.29-2.93-21.09-2.71-38.32,6.36-13.98,7.36-23.27,17.59-28.76,24.95"/>
              <path class="cls-18" d="m198.33,173.95c-.24-.74-.57-1.85-.84-3.21-2.2-11.14,3.26-20.75,6.02-25.44,2.48-4.23,6.38-10.69,14.32-15.35,2.68-1.57,9.44-5.55,12.96-3.35,2.68,1.67,1.3,5.66,2.29,14.89.31,2.83.29,1.15,2.81,13.72,2.41,12.05,2.97,16.35,2.78,21.65-.1,2.72-.37,4.94-.57,6.34"/>
              <g>
                <path class="cls-10" d="m233.15,144.72c2.17.53,5.97,1.09,9.9-.46.79-.31,1.6-.64,2.41-1.31,3.19-2.64,3.42-8.04,1.95-10.52-2.45-4.11-12.4-4.91-24.16-.11"/>
                <path class="cls-28" d="m237.03,138.63c5.3-1.34,9.46-4.59,10.32-8.39.41-1.83,0-3.45-.29-4.5-.22-.84-1.46-5.2-5.35-6.77-1.63-.66-3.14-.59-4.1-.52-6.54.46-14.11,2.7-17.85,3.89"/>
                <path class="cls-25" d="m230.73,130.28c4.24-2.18,6.55-6.64,5.72-10.27-.92-4.07-5.4-5.44-8.2-5.48-3.89-.06-6.85,2.38-9.59,4.67-3.29,2.75-5.27,5.71-6.33,7.56-.71.31-1.7.8-2.78,1.53-1.14.78-4.65,3.26-5.87,7.62-.68,2.44-.27,4.53-.05,5.45.23.97.56,1.76.83,2.32-.32.52-.63,1.04-.94,1.57-.48.83-.95,1.64-1.39,2.44"/>
              </g>
            </g>
            <g class="cls-63">
              <path class="cls-1" d="m247.41,134.36c-.1.49-.26.97-.47,1.44.2.23.37.48.52.74.27.48.47,1.07.61,1.72.41-2.04.18-4.14-.51-5.53,0,.52-.04,1.06-.16,1.62Z"/>
              <path class="cls-1" d="m236.69,159.32c.36,1.92.67,3.63.95,5.2-.28-1.64-.61-3.48-1.03-5.61.03.14.05.27.08.41Z"/>
              <path class="cls-34" d="m199.3,175.34c.48-.27.97-.54,1.45-.79-1.62-9.37,1.77-17.62,4.39-22.74h0s.05-.09.07-.13c.36-.69.69-1.32,1-1.88.08-.14.15-.28.22-.42.13-.23.25-.45.38-.67.12-.21.24-.44.37-.66.05-.08.09-.16.14-.24-.26-.56-.56-1.35-.78-2.32-.2-.92-.59-3.01.05-5.45,1.14-4.35,4.42-6.83,5.49-7.62,1.01-.74,1.93-1.22,2.6-1.53.99-1.85,2.84-4.81,5.92-7.56,2.56-2.29,5.33-4.73,8.97-4.67,2.29.04,5.78,1.09,7.19,4.07.53-.06,1.05-.12,1.56-.16.89-.07,2.3-.14,3.83.52,3.64,1.57,4.8,5.93,5.01,6.77.05.18.09.39.14.61.02-.07.05-.15.06-.22.41-1.83,0-3.45-.29-4.5-.22-.84-1.46-5.2-5.35-6.77-1.63-.66-3.14-.59-4.1-.52-.55.04-1.11.09-1.67.16-1.52-2.98-5.24-4.03-7.69-4.07-3.89-.06-6.85,2.38-9.59,4.67-3.29,2.75-5.27,5.71-6.33,7.56-.71.31-1.7.8-2.78,1.53-1.14.78-4.65,3.26-5.87,7.62-.68,2.44-.27,4.53-.05,5.45.23.97.56,1.76.83,2.32-.05.08-.1.16-.15.24-.13.22-.27.45-.4.66-.13.22-.27.44-.4.67-.08.14-.16.28-.24.42-.33.57-.69,1.19-1.07,1.88-.02.04-.05.09-.08.14h0c-2.81,5.12-6.44,13.37-4.7,22.73-.51.26-1.03.52-1.55.79-13.98,7.36-23.27,17.59-28.76,24.95l5.68,3.55c5.18-7.31,13.74-17.2,26.49-24.38Z"/>
            </g>
            <path class="cls-24" d="m251.99,266.83c2.55-.37,18.41-2.89,24.78-15.08,10.37-19.86-13.17-48.63-19.06-46.97-.58.16-.96.61-1.54,1.63-4.44,7.81-1.82,18.2-.22,23.14-9.14,8.92-18.28,17.83-27.42,26.75"/>
            <path class="cls-3" d="m237.28,255.74c8.21-8.01,16.42-16.02,24.63-24.03,1.75-1.71,2.43-4.24,1.75-6.6-.08-.28-.16-.56-.25-.85-.61-2.05-1.26-4-1.92-5.84-5.3-9.02-3.14-18.39,1.87-21.6-2.73-.98-5.79-1.03-8.19.23-5.42,2.83-7.95,12.59-2.45,21.95l1.04-.21c.27,4.3,1.35,8.24,2.17,10.77-9.14,8.92-18.28,17.83-27.42,26.75l23.47,10.52c.9-.13,3.46-.53,6.67-1.53l-21.37-9.58Z"/>
            <path class="cls-11" d="m218.48,183.94c3.75.51,9.84,1.91,15.4,6.36,4.1,3.28,6.53,8.49,11.4,18.91.26,7.15,1.64,17.69,7.36,28.66,1.96,3.76,3.88,6.53,6.51,10.05,18.66,25.05,27.51,27.69,27.06,33.58-1.02,13.35-48.58,28.3-92.45,17.95-12.19-2.88-35.33-8.36-51.01-28.76-13.49-17.55-15.89-38.76-16.25-42.32-.46-4.54-.8-7.65-.36-10.94,3.52-26.41,52.76-39.83,59.67-41.64"/>
            <path class="cls-29" d="m184.2,233.3c3.41,1.69,15.9,7.34,31.04,3.31,21.09-5.61,29.17-25.18,30.05-27.39.48,13.99,4.56,23.3,7.36,28.66,1.96,3.76,3.88,6.53,6.51,10.05,18.66,25.05,27.51,27.69,27.06,33.58-.97,12.74-48.69,30.75-92.45,17.95-12.94-3.78-35.11-10.27-38.06-26.73-2.43-13.56,8.91-29.96,28.49-39.43Z"/>
            <path class="cls-12" d="m269.91,215.56c2.7-6.35,1.43-13.08-2.78-16.62-3.26-2.73-8.34-3.79-11.95-1.9-5.42,2.83-7.95,12.59-2.45,21.95"/>
            <g>
              <path class="cls-30" d="m182.66,212.61c1.99-1.73,4.91-4.54,7.66-8.57,6.64-9.73,7.68-19.46,8.38-26.04.15-1.41.78-7.73-.4-15.56-.52-3.47-1.03-4.77-1.34-5.47-2.68-6.15-8.64-9.15-9.82-9.71-.07-.03-.39-.19-.58-.27-7.88-3.25-20.71,12.42-25.67,19.61-1.39,2.02-2.31,3.58-4.41,6.1-4.08,4.88-7.57,7.31-10.31,9.55-2.42,1.98-11.4,9.65-16.35,20.88-1.38,3.13-3.06,7.92-3.68,14.31"/>
              <path class="cls-27" d="m173.69,178.01c-2.4.88-6.76,2.09-11.86,1.07-3.48-.69-5.82-2.22-10.51-5.28-6.69-4.37-10.79-8.65-12.72-10.81-2.74-3.06-4.11-4.6-4.92-6.7-2.01-5.16-1.46-12.29,2.71-16.06,4.19-3.78,8.13-1.76,27.35,1.51,6.19,1.06,13.82.24,23.15,3.7,1.58.58,2.36.89,3.1,1.3,9.45,5.32,9.23,22.91,8.74,30.64"/>
              <g>
                <path class="cls-31" d="m159.93,142.75c1.42-.53,4.38-1.84,6.7-4.88.88-1.15,2.4-3.13,2.56-5.84.23-4.02-2.62-8.12-5.4-9.2-4.94-1.92-13.5,4.15-20.19,16.02"/>
                <path class="cls-22" d="m159.28,134.41c3.52-4.54,4.81-9.75,2.99-13.18-.87-1.65-2.31-2.58-3.24-3.19-.74-.48-4.68-2.93-8.97-1.52-1.8.59-3.01,1.65-3.76,2.34-5.13,4.7-9.94,11.43-12.26,14.82"/>
                <path class="cls-21" d="m147.67,132.24c2.08-4.16,1.24-8.79-1.6-10.95-3.13-2.38-7.48-.81-9.76.79-3.33,2.34-4.25,6.17-5.11,9.78-1.01,4.24-.77,7.8-.47,9.9-.18.34-.4.77-.64,1.27,0,0,0,0,0,0,0,0-.43.94-.73,1.7-.12.33-1.53,4.54.61,9,1.35,2.81,3.44,4.36,4.49,5.03,1.33,1.4,2.7,2.81,4.13,4.23,1.11,1.11,2.22,2.2,3.32,3.26"/>
              </g>
            </g>
            <path class="cls-4" d="m163.11,286.99c-3.42-3-10.02-9.64-12.91-20.07-4.17-15.04,2.65-28.04,7.38-37.17,7-13.52,16.25-20.19,17.12-20.79.02-.02,3.48-2.37,3.48-2.37h0c-.68-8.42,3.12-15.8,9.33-18.7.75-.35,6.89-3.12,11.07-.25,7.4,5.08,2.18,23.46,1.87,24.52-2.95,10.03-4.1,17.86-12.48,30.25-.56.82-.81,1.81-.68,2.8.95,7.36,1.85,14.82,2.7,22.38.73,6.44,4.08,15.31,2.94,28.57"/>
            <g class="cls-38">
              <path class="cls-17" d="m167.44,280.6c-3.42-3-10.02-9.64-12.91-20.07-4.5-16.21,3.42-30.16,7.38-37.17.23-.41.47-.8.7-1.2-1.76,2.29-3.47,4.81-5.03,7.58-3.96,7.01-11.88,20.96-7.38,37.17,2.89,10.43,9.49,17.08,12.91,20.07l29.82,9.15c.24-2.74.27-5.28.19-7.66l-25.67-7.88Z"/>
              <path class="cls-17" d="m178.83,203.86c.39-.31.78-.61,1.17-.89,2.15-1.6,3.32-4.15,3.24-6.82,0-.02,0-.03,0-.05-.04-1.59.17-2.99.44-4.11-1.71,1.18-3.04,2.62-3.64,4.15-.38.98-1.22,3.36-1.14,6.35,0,.02,0,.03,0,.05.01.45-.02.89-.08,1.33Z"/>
            </g>
            <g>
              <path class="cls-40" d="m196.64,170.98l29.42,13.95c2.01.92,4.21,1.29,6.39,1.06l28.56-.77c.49-.05.9.37.87.89l-5.77,49.52c-.02.43-.34.77-.74.8l-30.57-2.86c-1.92.14-3.84-.18-5.63-.94l-32.68-10.11c-.37-.16-.58-.59-.48-1l9.54-49.98c.12-.5.63-.77,1.08-.57Z"/>
              <path class="cls-39" d="m198.23,172.92l28.4,13.6c1.56.73,3.27,1.01,4.97.82l27.04-.84c.17-.02.31.13.3.32l-5.72,47.56c0,.15-.12.28-.26.29l-28.47-2.79c-1.49.12-2.98-.13-4.37-.73l-30.61-9.47c-.13-.06-.2-.21-.17-.36l8.52-48.19c.04-.18.22-.28.38-.21Z"/>
              <path class="cls-39" d="m199.51,173.13l27.21,13.4c1.49.72,3.12.99,4.75.78l25.87-1.03c.16-.02.3.13.29.32l-5.91,47.53c0,.15-.12.28-.25.29l-27.1-2.56c-1.43.13-2.85-.11-4.18-.69l-29.22-9.24c-.12-.05-.19-.21-.16-.36l8.33-48.22c.04-.18.22-.28.36-.21Z"/>
              <path class="cls-39" d="m200.56,173.31l26.16,13.22c1.43.71,2.99.97,4.55.75l24.85-1.2c.16-.02.29.13.27.32l-6.07,47.5c-.01.15-.11.28-.24.29l-25.9-2.36c-1.37.14-2.74-.09-4-.66l-28-9.03c-.12-.05-.18-.21-.15-.36l8.17-48.25c.04-.18.21-.28.35-.21Z"/>
              <path class="cls-39" d="m201.74,173.51l25.08,13.04c.5.17,1,.35,1.5.52,3.93-.51,8.15-.91,12.64-1.12,4.98-.24,9.66-.23,14-.06.02,0,.12,0,.19.08.05.06.08.14.07.24l-6.24,47.47c-.01.15-.11.28-.23.29-4.28-.72-8.06-1.37-12.96-1.8-5.1-.45-9.92-.65-14.41-.68-4.25-1.86-8.94-3.69-14.07-5.37-4.52-1.48-9.74-2.81-13.76-3.75-.02-.01-.09-.05-.13-.14-.02-.06-.03-.14-.01-.21,2.48-16.22,5.86-32.28,8.34-48.49Z"/>
              <path class="cls-2" d="m221.37,231.48l6.94-44.41c-2.8-2.35-6.03-4.82-9.71-7.24-4.53-2.99-9.75-5.52-13.63-7.36-.01,0-.15-.09-.28-.01-.09.05-.16.14-.18.26l-8.23,48.52c-.04.18.05.37.2.42,3.6.95,7.52,2.18,11.68,3.77,4.97,1.91,9.38,4,13.22,6.05Z"/>
              <g class="cls-49">
                <path class="cls-8" d="m205.77,177.72c.7-1.29.84-1.51.85-1.5.03.02-.9,1.19-.54,2.58.12.44.33.79.53,1.1.1.15.72,1.16,1.48,1.6,1.54.89,3.73-.49,3.53-1.26-.19-.72-2.6-1.56-3.13-.81-.96,1.33,3.62,8.28,5.7,7.99,1.24-.17.83-2.81,2.05-2.86,1.7-.06,3.92,4.99,3.75,5.97-.04.23-.08.47-.12.7-.14.77-.19.88-.14.92.24.22,1.65-2.61,3.36-2.17.61.16,1.15.72,1.43,1.24.4.77.37,1.72-.1,2.25-.09.1-.48.54-.94.4-1.23-.37-2.12-4.71-1.71-4.82.2-.05.87.89,3.01,5.51"/>
                <path class="cls-8" d="m204.5,185.36c.35-.94.65-1.14.89-1.09.77.16,1.95,3.2,1.09,4.57-.77,1.24-2.84.53-2.85,1.09-.01.62,2.55,2.34,3.76,1.62,1.43-.84.7-4.83.48-4.89-.22-.05-1.18,3.7.38,5.62,1.01,1.25,3.08,1.72,4.51,1.37,1.37-.34,1.87-1.36,2.4-.99.45.31.53,1.35.7,3.35.08,1.04.04,1.27.27,1.67.56.99,1.97,1.64,2.73,1.27.31-.15.3-.36.54-.62,1.02-1.09,3.55.21,3.6,0,.07-.34-6.09-4.26-6.65-3.28-.65,1.14,6.3,8.96,8.09,8.05.66-.33.53-1.8.29-3.06"/>
                <path class="cls-8" d="m202.18,198.38c.08-.38.57-2.54,2.16-2.82.24-.04.49-.08.75.08,1.15.71,1.09,4.46.68,4.46-.29,0-1.17-1.94-.64-2.71.34-.49,1.14-.36,1.47-.3,1.58.26,2.78,1.67,3,1.93,1.78,2.14,1.25,4.01,2.67,4.92.66.43,1.51.49,1.89.09.7-.73,0-3.2-1.11-3.8-1.23-.67-2.13,1.45-5.33,1.6-.87.04-1.31-.09-1.31.03-.02.54,8.38,3.82,11.26,3.41.15-.02.68-.11,1.34.15.86.34,1.77,1.2,2.14,2.2.6,1.63-.49,2.89-.15,3.18.3.25,1.33-.55,1.85-1.66.18-.37.27-.72.33-.99"/>
                <path class="cls-8" d="m202.13,205.56c-.34-1.12-.02-2.14.68-2.46,1.05-.48,2.66.74,2.75,1.5.03.24-.09.47-.51.8-1.21.95-3.54,1.73-4.37.7-.46-.57-.49-1.75.04-2.22,1.37-1.18,6.79,2,7.45,5,.17.75.04,1.48.46,1.8.52.39,1.11-.4,2.51-.67.24-.05,2.42-.47,3.28.59.95,1.17-.32,3.37.43,3.97.32.25.89.11,2.05-.16.28-.07.48-.13.61-.17,1.84-.56,2.76-.84,2.72-.97-.08-.27-2.99-.7-3.21.27-.24,1.06,2.84,3.36,3.61,3.18.09-.02.17-.05.17-.05.58-.23.71-.83.79-.79.07.03.04.54-.25,2.19"/>
                <path class="cls-8" d="m203.05,212.51c-2.32-1.73-2.95-2.51-2.86-2.82.05-.17.35-.18.96-.17,1.17,0,2.14,0,2.67.63.57.67,0,1.3.41,2.12,1.09,2.16,7.12,1.76,7.27,2.47.03.14-.2.17-.17.38.06.56,1.7.65,2.43,1.76.62.95.07,1.86.56,2.23.53.4,1.2-.63,2.73-.35.25.05.59.11.98.34,1.52.9,1.7,3.11,2.36,3.18.17.02.45-.36,1-1.11.18-.24.32-.46.43-.61"/>
                <path class="cls-8" d="m202.4,214.1c-1.56.28-2.53,1.3-2.39,2.28.22,1.61,3.43,3.12,4.19,2.35.52-.53.06-2.27-.89-3.2-1.6-1.58-4.77-.95-4.89.27-.2,1.93,7.06,6.75,8.99,5.23.48-.38.44-1.01,1.64-2.64.5-.68,1.22-1.65,1.5-1.46.39.26,0,2.8-.49,4.6-.15.54-.29.97-.13,1.12.42.39,1.85-2.21,3.89-1.79,1.31.27,2.63,1.75,2.54,2.42-.07.51-.96.63-.93.69.03.05.85-.22.85-.22,1.46-.48,2.19-.71,2.28-.59.26.35-2.5,2.26-2.05,3.14.38.75,2.98.63,2.98.08,0-.75-4.94-2.34-4.92-2.53.01-.1,1.44.3,5.19,1.53"/>
              </g>
              <g class="cls-62">
                <path class="cls-23" d="m229.59,195.24c1.18-2.26,2.77-3.99,3.86-3.99,1.79,0,2.32,4.61.91,5.69-.8.61-2.46.26-2.61-.54-.19-1.02,2.12-2.54,2.27-2.64.33-.21,2.05-1.33,3.91-1.18,2.61.21,2.95,2.7,4.27,2.25,1.12-.38,2.17-2.61,1.62-3.16-.73-.73-4.81,1.1-5.3,2.97-.17.65.14,1.12.2,1.2,1.57,2.27,9.89-.72,10.26-2.38.08-.34-.21-.52-.21-1.47,0-.44,0-.95.25-1.48.46-.99,1.72-2.01,2.41-1.88.89.17,1.08,2.29.01,3.46-1.18,1.29-3.82,1.36-4.88.11-1.02-1.2-.52-3.57.43-4.08,1.76-.93,6.23,3.92,5.03,5.64-.2.28-.52.44-.69.51"/>
                <path class="cls-32" d="m228.05,202.25c.19-.95.94-1.71,1.6-1.82.88-.15,1.38.91,1.19,1.71-.18.77-.98,1.21-.91,1.36.16.31,3.73-1.29,3.73-2.08,0-.46-1.2-.78-2.12-.22-.6.37-1.15,1.15-1.01,1.57.32.96,4.4.39,5.72-1.51.83-1.19.46-2.7.61-2.74.2-.06-.06,2.91,1.33,3.25.38.09,1.04-.14,2.38-.59.74-.25.89-.35,1.89-.73,2.63-.99,2.91-.84,3.03-.74.39.37-.33,1.15.04,1.75.48.79,2.45.56,3.64-.39.37-.3.62-.62.69-.73.52-.73.66-1.51.62-1.81-.22-1.65-7.57-1.31-8.37.4-.52,1.12,1.73,2.89,4.08,3.34,2.25.43,4.4-.39,5.33-.81"/>
                <path class="cls-32" d="m227.73,206.85c1.81.23,2.16.45,2.12.62-.04.17-.44.17-.77.54-.6.66-.1,1.55-.53,1.93-.4.35-1.4.13-1.38-.21.04-.57,2.92-1.97,3.85-1.21.32.26.14.57.45.9.81.89,3.49.31,4.27-.92.74-1.15-.27-2.8-.26-2.8.02,0,.62,3.42,1.8,3.27,1.3-.16,2.27-4.55,3.58-4.76,1.45-.22,2.07,4.84,1.7,5.03-.27.14-.83-2.41-2.12-2.17-.83.16-1.65,1.41-1.49,1.61.22.29,2.46-1.29,6.9-3.23.82-.36,1.66-.71,2.02-.38.66.59-.87,2.85-.35,3.19.2.13.74.01,2.31-1.28"/>
                <path class="cls-23" d="m227.19,215.85c-.59-.73-.63-1.56-.28-1.93.42-.43,1.48-.34,1.72.18.43.94-1.72,3.5-2.54,3.39-.32-.05-.48-.5-.38-.91.29-1.19,2.82-2.04,3.71-2.35,1.2-.41,1.79-.61,2.31-.47,1.63.43,1.14,3.02,2.38,3.02.72,0,1.04-.87,2.45-1.21.93-.22,1.36.03,1.65-.3.38-.42.18-1.36-.36-1.85-.7-.65-1.73-.3-1.73-.52,0-.47,4.93-3.07,6.49-1.65.62.56,1.29,2.27,1.76,3.48.12.31.21.55.44.57,1.08.07,3.81-4.84,3.2-5.26-.63-.44-3.89,4.43-8.45,5.19-2.09.35-3.9-.26-3.81-.61.11-.4,2.83-.89,13.12-1.36"/>
                <path class="cls-23" d="m228.23,223.16c-.18-.66-.5-.94-.76-1.08-.49-.26-1.01-.12-1.2-.5-.1-.21-.09-.54.06-.75.76-1.02,6.17.01,5.94,1.56-.08.54-.86,1.19-1.42,1.2-1.24.03-2.08-3.05-.96-4.22.94-.97,3.18-.57,4.48.21,1.58.94,1.39,2.22,2.47,2.14.95-.07,1.38-1.1,4.17-2.66.56-.32.85-.47,1.11-.57,2.72-.98,5.04,1.47,4.91,1.65-.11.15-1.81-1.3-3.64-.42-.7.33-1.44,1.02-1.39,1.4.06.41,1.09.64,5.8-.38"/>
                <path class="cls-23" d="m226.22,226.97c-.57.34-1.45.9-1.41,1.13.04.24,1.04.1,1.85-.16,2.01-.64,2.33-1.81,3.89-2.23.71-.19,1.47-.03,2.99.27,1.43.29,1.71.57,2.68.5.21-.01,2.13-.16,2.61-1.04.53-.98-.76-2.85-2.19-2.57-1.78.36-3.25,3.98-2.6,4.54.56.49,3.24-.91,4.79-1.97.67-.46,1.3-.97,1.98-.91.74.05.65.7,1.47.88.78.17,1.01-.38,2.58-.5.66-.05.92.03,1.58-.14.55-.14,1-.36,1.3-.52"/>
              </g>
            </g>
            <path class="cls-13" d="m187.34,196.41c2.18-2.61,5.06-3.87,7.36-3.12.23.07,2.03.66,2.36,2.04.11.47.2,1.64-3.77,5.28-1.27,1.16-3.11,2.73-5.55,4.39"/>
            <path class="cls-12" d="m265.88,205.12c-6.37-5.77-8.66-6.42-9.51-5.81-1.1.79-.32,4.04.84,6.05,1.53,2.63,4.02,3.63,4.81,3.91"/>
            <path class="cls-37" d="m209.13,298.94c-17.46-8.53-33.75-23.8-41.47-31.04,0,0-18-16.87-26.71-36.13-1.39-3.08-3.05-7.44-3.05-13,0-5.98,1.93-10.36,3.68-14.31,4.96-11.23,13.93-18.9,16.35-20.88,1.59-1.3,3.43-2.66,5.49-4.53,1.2-1.09,1.04-3.02-.31-3.91l-.03-.02c-6.69-4.37-10.79-8.65-12.72-10.81-.03-.03-.07-.07-.1-.1-.16-.09-.32-.18-.48-.27-1.74-1.01-3.43-2.02-5.07-3.03-1.18-.38-3.61-1.35-5.63-3.71-3.22-3.76-2.94-8.19-2.91-8.54.09-.82.26-1.83.26-1.83,0,0,0,0,0,0,.1-.54.2-1.01.29-1.39-.83-1.96-1.98-5.33-2.09-9.69-.09-3.71-.19-7.64,2.43-10.76,1.79-2.13,5.59-4.76,9.23-3.27.79.33,1.51.83,2.13,1.45,1.56-1,3.88-1.91,6.13-1.75,1.24.09,2.46-.28,3.37-1.12.05-.04.09-.08.14-.12.48-.44,1.17-1.02,2.05-1.54-.31-.23-.61-.43-.87-.6-.74-.48-4.68-2.93-8.97-1.52-1.8.59-3.01,1.65-3.76,2.34-.57.52-1.13,1.07-1.69,1.64-2.91-1.1-6.35.23-8.29,1.59-3.33,2.34-4.25,6.17-5.11,9.78-1.01,4.24-.77,7.8-.47,9.9-.18.34-.4.77-.64,1.27,0,0,0,0,0,0,0,0-.43.94-.73,1.7-.12.33-1.53,4.54.61,9,1.35,2.81,3.44,4.36,4.49,5.03,1.33,1.4,2.7,2.81,4.13,4.23,1.93,2.16,6.03,6.44,12.72,10.81.98.64,1.83,1.19,2.64,1.7-3,3.1-5.63,4.98-7.79,6.75-2.42,1.98-11.4,9.65-16.35,20.88-1.38,3.13-3.06,7.92-3.68,14.31-.44,3.29-.1,6.4.36,10.94.36,3.56,2.77,24.77,16.25,42.32,15.68,20.4,38.82,25.89,51.01,28.76,7.35,1.73,20.21,4.54,20.66,3.1.27-.87-4.08-2.95-5.5-3.64Z"/>
          </g>
          <g>
            <g>
              <polygon class="cls-33" points="259.83 236.33 260.48 285.83 269.08 262.87 266.64 217.25 259.83 236.33"/>
              <g>
                <polygon class="cls-20" points="337.85 281.11 256.12 305.61 187.29 248.62 259.92 236.95 337.85 281.11"/>
                <polygon class="cls-33" points="256.12 305.61 233.59 360.25 179.74 295.26 187.35 248.37 256.12 305.61"/>
                <polygon class="cls-19" points="312.95 323.49 233.59 360.25 256.12 305.61 337.85 281.11 312.95 323.49"/>
              </g>
              <polygon class="cls-33" points="187.29 248.62 179.74 295.26 161.63 290.23 164.46 240.43 187.29 248.62"/>
            </g>
            <g>
              <path class="cls-43" d="m223.95,256.87c8-1.33,19.68,2.23,26.1,7.94,3.4,3.03,4.62,6.04,3.84,8.42,1.46-2.48.39-5.88-3.45-9.3-6.42-5.71-18.11-9.27-26.1-7.94-3.76.62-6.02,2.22-6.7,4.33.98-1.67,3.09-2.91,6.3-3.45Z"/>
              <path class="cls-43" d="m258.83,249.72c7.4-1.3,19.06,1.72,26.03,6.75,3.88,2.8,5.49,5.62,4.87,7.8,1.42-2.26-.04-5.49-4.47-8.69-6.97-5.02-18.62-8.04-26.03-6.75-3.28.57-5.17,1.9-5.66,3.64.81-1.3,2.56-2.28,5.26-2.75Z"/>
              <ellipse class="cls-44" cx="235.55" cy="266.94" rx="9.2" ry="19.31" transform="translate(-91.59 407.36) rotate(-71.81)"/>
              <ellipse class="cls-44" cx="271.43" cy="258.53" rx="7.94" ry="19.08" transform="translate(-54.5 443.68) rotate(-73.21)"/>
            </g>
            <path class="cls-43" d="m235.09,249.94c-.1-.21-.86-1.85-.05-3.06.12-.18.56-.78,1.91-1.09,2.96-.68,6.05.99,7.21,1.69-.29-.1-.71-.22-1.21-.35-1.45-.35-5.58-1.35-7.19.55-.26.31-.69.97-.67,2.26Z"/>
          </g>
          <rect class="cls-47" y="-38.93" width="397.99" height="505.06"/>
        </g>
      </g>
    </g>
  </g>
</svg>