<?xml version="1.0" encoding="UTF-8"?>
<svg xmlns="http://www.w3.org/2000/svg" xmlns:xlink="http://www.w3.org/1999/xlink" viewBox="0 0 230.76 155">
  <defs>
    <style>
      .cls-1 {
        stroke-width: .73px;
      }

      .cls-1, .cls-2, .cls-3, .cls-4, .cls-5, .cls-6, .cls-7, .cls-8, .cls-9, .cls-10, .cls-11, .cls-12, .cls-13, .cls-14, .cls-15, .cls-16, .cls-17, .cls-18, .cls-19, .cls-20, .cls-21, .cls-22, .cls-23, .cls-24, .cls-25, .cls-26, .cls-27 {
        stroke-linecap: round;
        stroke-linejoin: round;
      }

      .cls-1, .cls-28, .cls-12, .cls-16, .cls-19, .cls-20, .cls-23 {
        fill: none;
      }

      .cls-1, .cls-16, .cls-19, .cls-23 {
        stroke: #f95555;
      }

      .cls-2, .cls-11 {
        stroke-width: .94px;
      }

      .cls-2, .cls-13 {
        fill: #edbe8e;
        stroke: #eab686;
      }

      .cls-3 {
        stroke: #efae50;
      }

      .cls-3, .cls-9 {
        fill: #ffcd52;
      }

      .cls-4, .cls-7, .cls-18, .cls-25, .cls-26, .cls-27 {
        stroke: #2e272d;
      }

      .cls-4, .cls-29, .cls-30 {
        opacity: .23;
      }

      .cls-4, .cls-18, .cls-26, .cls-27 {
        fill: #2e272d;
      }

      .cls-4, .cls-18, .cls-27 {
        stroke-width: 1.01px;
      }

      .cls-4, .cls-30, .cls-31, .cls-32 {
        mix-blend-mode: multiply;
      }

      .cls-5 {
        fill: #f4f4f4;
        stroke: #e5e3e3;
        stroke-width: .87px;
      }

      .cls-6 {
        fill: #ea6060;
      }

      .cls-6, .cls-20 {
        stroke: #ce5757;
      }

      .cls-7, .cls-25 {
        fill: #382e37;
      }

      .cls-33 {
        fill: url(#_Безымянный_градиент_30);
        opacity: .31;
      }

      .cls-33, .cls-34, .cls-35, .cls-36, .cls-28, .cls-37, .cls-38, .cls-31 {
        stroke-width: 0px;
      }

      .cls-33, .cls-35 {
        mix-blend-mode: overlay;
      }

      .cls-8 {
        fill: #e5c9ae;
      }

      .cls-8, .cls-14, .cls-21 {
        stroke: #836b5a;
        stroke-width: 1.05px;
      }

      .cls-39 {
        isolation: isolate;
      }

      .cls-34 {
        fill: #a4896d;
      }

      .cls-9 {
        stroke: #db9c49;
      }

      .cls-10 {
        fill: #ffd766;
        stroke: #f9c04e;
        stroke-width: .48px;
      }

      .cls-35 {
        fill: url(#_Безымянный_градиент_27);
        opacity: .21;
      }

      .cls-11 {
        fill: #5576ff;
        stroke: #395bbc;
      }

      .cls-36 {
        fill: #272425;
      }

      .cls-12, .cls-15, .cls-24 {
        stroke: #89b725;
      }

      .cls-37 {
        fill: #ff6464;
      }

      .cls-14 {
        fill: #d0b69a;
      }

      .cls-15, .cls-17, .cls-24 {
        fill: #a6dd45;
      }

      .cls-16 {
        stroke-width: .58px;
      }

      .cls-40 {
        clip-path: url(#clippath);
      }

      .cls-17 {
        stroke: #7b9e1b;
      }

      .cls-18, .cls-26 {
        opacity: .44;
      }

      .cls-19 {
        stroke-width: .72px;
      }

      .cls-38 {
        fill: #aad2f2;
      }

      .cls-21 {
        fill: #f4d8b3;
      }

      .cls-22 {
        fill: #4c1d14;
        stroke: #7f2317;
      }

      .cls-23 {
        stroke-width: .61px;
      }

      .cls-24 {
        stroke-width: .5px;
      }

      .cls-25 {
        stroke-width: .96px;
      }

      .cls-31 {
        fill: url(#_Безымянный_градиент_32);
        opacity: .35;
      }
    </style>
    <clipPath id="clippath">
      <rect class="cls-28" width="230.76" height="155"/>
    </clipPath>
    <linearGradient id="_Безымянный_градиент_32" data-name="Безымянный градиент 32" x1="111.24" y1="3.65" x2="111.51" y2="160.49" gradientUnits="userSpaceOnUse">
      <stop offset=".01" stop-color="#fff5ca"/>
      <stop offset=".1" stop-color="#f0e6cd"/>
      <stop offset=".28" stop-color="#c9c1d5"/>
      <stop offset=".53" stop-color="#8a84e2"/>
      <stop offset=".83" stop-color="#3432f4"/>
      <stop offset="1" stop-color="blue"/>
    </linearGradient>
    <radialGradient id="_Безымянный_градиент_30" data-name="Безымянный градиент 30" cx="110.33" cy="75.65" fx="110.33" fy="75.65" r="139.63" gradientTransform="translate(0 12.01) scale(1 .84)" gradientUnits="userSpaceOnUse">
      <stop offset=".01" stop-color="#fff5ca"/>
      <stop offset=".12" stop-color="#fcf0c9"/>
      <stop offset=".25" stop-color="#f4e2c7"/>
      <stop offset=".38" stop-color="#e6ccc3"/>
      <stop offset=".52" stop-color="#d3adbf"/>
      <stop offset=".66" stop-color="#bb85b9"/>
      <stop offset=".8" stop-color="#9e53b1"/>
      <stop offset=".94" stop-color="#7b1aa9"/>
      <stop offset="1" stop-color="#6c00a5"/>
    </radialGradient>
    <radialGradient id="_Безымянный_градиент_27" data-name="Безымянный градиент 27" cx="112.71" cy="65.64" fx="112.71" fy="65.64" r="135.79" gradientTransform="translate(0 13) scale(1 .8)" gradientUnits="userSpaceOnUse">
      <stop offset="0" stop-color="#ffc68d"/>
      <stop offset=".09" stop-color="#fdc08b"/>
      <stop offset=".2" stop-color="#f7b185"/>
      <stop offset=".32" stop-color="#ef987d"/>
      <stop offset=".45" stop-color="#e37670"/>
      <stop offset=".59" stop-color="#d34961"/>
      <stop offset=".73" stop-color="#c1144e"/>
      <stop offset=".78" stop-color="#ba0047"/>
    </radialGradient>
  </defs>
  <g class="cls-39">
    <g id="_Слой_9" data-name="Слой 9">
      <g class="cls-40">
        <rect class="cls-38" x="-2.41" y="-4.33" width="236.61" height="163.34"/>
        <rect class="cls-31" x="-26.88" y="-37.31" width="276.47" height="211.34"/>
        <polygon class="cls-4" points="114.85 143.75 23.05 142.05 69.99 113.48 129.96 114.84 114.85 143.75"/>
        <polygon class="cls-5" points="113.05 144 21.25 142.3 68.19 113.73 128.16 115.09 113.05 144"/>
        <ellipse class="cls-4" cx="119.19" cy="111.31" rx="70.6" ry="12.85"/>
        <path class="cls-4" d="m44.4,108.25c-1.24,1.72.38,4.83.98,5.98,1.46,2.8,4.64,4.45,10.94,7.63,4.88,2.47,7.02,3.04,9.14,3.25,1.99.2,3.67.05,4.83-.13,1.13,1.74,2.26,3.48,3.39,5.21.61-.44,1.93-1.54,2.59-3.43.84-2.42.02-4.53-.25-5.28-1.38-3.74-5.27-5.58-7.57-6.61-10.74-4.83-21.63-9.94-24.04-6.61Z"/>
        <path class="cls-25" d="m80.51,104.86s-6.15-3.66-7.44-14.59c-2.06-17.39,51.47-66.83,90.18-51.08,3.63,1.48,20.08,8.8,24.67,25.41.47,1.7,3.56,14.66-3.17,25.46-5.86,9.4-15.68,12.15-27.49,15.46-1.04.29-1.99.54-3.07.77-12.97,2.74-19.85,2.01-38.61,2.32,0,0-19.03.31-31.53-2.39-.63-.14-2-.45-3.53-1.36Z"/>
        <path class="cls-7" d="m159.9,67.13c-.61.38-9.94,6.37-10.02,17.41-.06,8.77,5.77,14.31,6.75,15.21"/>
        <path class="cls-7" d="m69.26,80.82c-3.43.84-8.58,2.58-13.71,6.44-2.91,2.2-14.85,11.2-12.7,21.16,1.77,8.17,11.87,11.71,15.73,13.07,4.7,1.65,13.65,3.74,16.56,0,.67-.86.37-1.19,1.57-6.04,1.58-6.4,2.25-6.45,1.93-7.84-1.24-5.35-11.89-8.07-11.85-8.14,0,0,.01,0,.01,0,5.63,1.67,6.69,2.33,6.69,2.33,2.87,1.8,4.63,4.12,5.55,5.54,1.73-.53,3.47-1.05,5.2-1.58-.71-.43-1.7-1.15-2.58-2.29-.48-.62-.83-1.22-1.07-1.74"/>
        <path class="cls-7" d="m145.27,83.17c-7.69-1-12.39.86-15.27,2.77-3.13,2.07-3.63,3.88-9.02,7.51-3.67,2.47-6.82,3.91-8.58,4.65-.84.35-1.6.64-2.27.88-2.01-.84-6.83-2.47-12.15-.59-1.5.53-4.01,1.42-5.89,3.95-2.25,3.03-3.17,7.84-1.84,10.87,3.74,8.53,26.2,4.91,32.31,3.78.54-.1.94-.18,1.18-.22,11.45-2.27,20.33-6.23,26.9-10.03"/>
        <path class="cls-18" d="m79.77,104.81c-6.38-3.75-7.34-12.75-7.54-14.59-1.52-14.35,19.67-28.06,35.07-38.07,14.44-9.39,30.67-19.83,39.49-13.82,4.8,3.27,6.07,10.49,6.61,13.57,1.01,5.72-.47,7.7-2.16,20.86-1.23,9.56-1.82,14.4-.78,17.81,2.4,7.84,8.78,12.74,7.03,14.9-.65.81-1.97.81-3.11.77-14.76-.54-27.57-3.33-27.57-3.33-2.46-.54-4.31-.94-5.61-1.21,0,0-1.23-.25-2.28-.44-8.18-1.51-14.12-2.61-19.46-.38-4.42,1.84-4.53,4.34-9.29,5.34-3.47.73-6.46.05-6.84-.05,0,0-1.94-.4-3.58-1.36Z"/>
        <g>
          <polygon class="cls-21" points="65.27 95.02 80.13 81.12 73.87 75.77 52.46 86.35 65.27 95.02"/>
          <polygon class="cls-21" points="130.06 96.49 65.27 95.02 56.16 24.62 124.87 23 130.06 96.49"/>
          <polygon class="cls-14" points="150.05 81.57 130.28 96.48 125.09 22.99 146.93 11.89 150.05 81.57"/>
          <polygon class="cls-8" points="125.19 23.16 56.16 24.62 84.6 13.73 146.93 11.89 125.19 23.16"/>
          <g>
            <ellipse class="cls-34" cx="109.02" cy="68" rx="10.35" ry="13.5" transform="translate(-4.04 6.96) rotate(-3.59)"/>
            <ellipse class="cls-34" cx="77.79" cy="68.02" rx="9.97" ry="13.16" transform="translate(-12.4 17.58) rotate(-11.95)"/>
            <ellipse class="cls-36" cx="109.8" cy="68.08" rx="10.16" ry="13.5" transform="translate(-4.01 6.93) rotate(-3.55)"/>
            <ellipse class="cls-36" cx="79.17" cy="68.12" rx="9.79" ry="13.15" transform="translate(-11.7 16.62) rotate(-11.17)"/>
          </g>
          <path class="cls-34" d="m90.82,87.48c-.28.62,1.68,2.78,4.01,2.83,2.43.06,4.53-2.19,4.26-2.83-.18-.42-1.33.04-4.55,0-2.65-.03-3.55-.37-3.71,0Z"/>
          <polygon class="cls-21" points="130.06 96.49 150.05 81.57 159.18 79.32 149.34 91.63 130.06 96.49"/>
        </g>
        <g class="cls-32">
          <path class="cls-12" d="m83.76,127.59c.95-1.02,2.38-2.33,4.38-3.45,2.92-1.64,5.65-2.11,7.3-2.26"/>
          <g>
            <path class="cls-37" d="m77.28,134c-5.85,1.74-10.67,2.15-11.82-1.8-1.15-3.89,3.63-7.57,10.2-5.66,6.52,1.81,11.45,5.53,11.85,5.87.46.41-4.27-.21-10.23,1.58Z"/>
            <path class="cls-19" d="m77.28,134c-5.85,1.74-10.67,2.15-11.82-1.8-1.15-3.89,3.63-7.57,10.2-5.66,6.52,1.81,11.45,5.53,11.85,5.87.46.41-4.27-.21-10.23,1.58Z"/>
          </g>
          <g>
            <path class="cls-37" d="m96.85,134.75c-2.39,2.42-6.84.83-11-.65-4.15-1.55-6.04-1.58-4.03-3.11,1.93-1.46,7.36-4.6,11.95-3.92,4.6.61,5.52,5.35,3.08,7.67Z"/>
            <path class="cls-1" d="m96.85,134.75c-2.39,2.42-6.84.83-11-.65-4.15-1.55-6.04-1.58-4.03-3.11,1.93-1.46,7.36-4.6,11.95-3.92,4.6.61,5.52,5.35,3.08,7.67Z"/>
          </g>
          <g>
            <path class="cls-37" d="m88.72,136.31c-.28,3.25-9.12,3.41-14.79,1.86-5.84-1.48-3.11-2.54,1.3-4.6,4.54-2.09,5.48-4.12,7.16-3.67,1.56.31,6.71,3.25,6.33,6.42Z"/>
            <path class="cls-23" d="m88.72,136.31c-.28,3.25-9.12,3.41-14.79,1.86-5.84-1.48-3.11-2.54,1.3-4.6,4.54-2.09,5.48-4.12,7.16-3.67,1.56.31,6.71,3.25,6.33,6.42Z"/>
          </g>
          <g>
            <path class="cls-37" d="m88.6,128.99c-4.02,1.97-4.13,4.28-5.82,3.78-1.59-.22-7.13-3.8-6.41-7.63.67-3.95,9.14-2.71,13.9-.34,5.01,2.23,2.23,2.26-1.67,4.2Z"/>
            <path class="cls-16" d="m88.6,128.99c-4.02,1.97-4.13,4.28-5.82,3.78-1.59-.22-7.13-3.8-6.41-7.63.67-3.95,9.14-2.71,13.9-.34,5.01,2.23,2.23,2.26-1.67,4.2Z"/>
          </g>
          <ellipse class="cls-10" cx="81.65" cy="130.61" rx="6.05" ry="2.67" transform="translate(-6.11 4.02) rotate(-2.72)"/>
          <path class="cls-24" d="m95.42,123.01c5.8,0,9.93,2.51,10.34,5.36.38,2.6-2.28,5.87-3.77,5.58-.94-.18-1.09-1.73-2.13-4.16-1.29-3.02-3.02-5.25-4.44-6.78Z"/>
          <path class="cls-24" d="m93.05,120.43c-4.04-2.18-8.04-2.83-9.61-1.94-1.43.8-1.06,2.99.11,3.45.74.29,1.54-.22,3.36-.71,2.26-.62,4.47-.77,6.15-.79Z"/>
        </g>
        <g>
          <path class="cls-6" d="m76.18,125.08c-.84,1.71-1.67,3.41-2.51,5.12-1.17-1.56-2.33-3.11-3.5-4.67-1.04-13.83-2.07-22.66-3.11-36.48.54-.31,1.6-.82,3.03-.91,1.35-.09,2.4.24,2.97.46,1.04,13.83,2.07,22.66,3.11,36.48Z"/>
          <line class="cls-20" x1="71.87" y1="112.37" x2="72.76" y2="124.27"/>
          <path class="cls-13" d="m76.19,125.16c-.84,1.71-1.67,3.41-2.51,5.12-1.17-1.56-2.33-3.11-3.5-4.67-.04-.48-.08-.96-.12-1.44.56.39,1.11.78,1.67,1.17.5-.52,1-1.05,1.49-1.57.43.4.86.81,1.29,1.21.53-.34,1.06-.69,1.59-1.03l.09,1.2Z"/>
          <path class="cls-22" d="m74.24,129.15c-.18.38-.37.75-.55,1.13-.27-.35-.54-.7-.81-1.05.1-.07.33-.21.68-.23.33-.02.58.1.69.15Z"/>
          <line class="cls-20" x1="71.34" y1="88.48" x2="72.67" y2="108.29"/>
          <line class="cls-20" x1="69.11" y1="88.61" x2="69.62" y2="96.58"/>
        </g>
        <path class="cls-7" d="m58.68,121.49c7.75,3.56,15.08,3.9,18.11.45,1.26-1.44,1.55-3.28,2.04-6.39.69-4.33,1.32-8.32-.96-11.61-3.3-4.76-10.24-4.51-10.97-4.47"/>
        <path class="cls-18" d="m183.78,78.35c-.88-.21-1.44,4.9-5.95,9.81-3.37,3.68-7.39,5.54-10.81,7.12-6.52,3.02-10.35,3.09-10.39,4.47-.05,1.52,4.53,3.6,8.99,3.54,7.6-.1,14.27-6.35,17.05-12.85,2.46-5.76,2.05-11.88,1.11-12.1Z"/>
        <path class="cls-7" d="m186.43,60.33c2.42,3.14,11.84,16.08,9.33,32.97-1.14,7.69-4.27,12.93-5.32,14.58-9.26,14.6-26.11,17.54-32.06,18.57-4.78.83-26.44,4.61-34.47-6.74-2.32-3.28-4.71-9.53-2.29-14.76,1.66-3.59,4.93-5.29,6.38-6.03,8.2-4.14,13.75.51,25.8.56,2.74.01,21.09.09,27.63-10.84,2.6-4.34,2.55-9.11,2.22-12.1"/>
        <path class="cls-26" d="m186.55,60.68l-.02.14c3.53,5.23,9.65,16.52,7.57,30.53-1.14,7.69-4.27,12.93-5.32,14.58-9.26,14.6-26.11,17.54-32.06,18.57-4.54.79-24.32,4.23-33.17-5.16.16.25.31.49.47.71,8.03,11.35,29.7,7.57,34.47,6.74,5.95-1.04,22.8-3.97,32.06-18.57,1.05-1.65,4.18-6.89,5.32-14.58,2.51-16.89-6.9-29.83-9.33-32.97Z"/>
        <path class="cls-7" d="m73.72,99.52c.19-.85,1.73-1.34,2.91-1.19,1.39.17,2.49,1.24,2.89,2.46.35,1.09.27,2.69-.5,3.05-.69.33-1.65-.47-3.2-1.76-1.47-1.22-2.25-1.88-2.1-2.57Z"/>
        <g class="cls-30">
          <g>
            <path class="cls-27" d="m183.71,144.72c-1.64-.74-3.27-1.47-4.91-2.21,1.43-1.15,2.87-2.3,4.3-3.44,13.01-1.4,21.31-2.65,34.32-4.06.31.5.82,1.48.95,2.83.12,1.27-.15,2.28-.34,2.82-13.01,1.4-21.31,2.65-34.32,4.06Z"/>
            <line class="cls-27" x1="208.42" y1="137.87" x2="189.11" y2="139.96"/>
            <path class="cls-27" d="m183.63,144.73c-1.64-.74-3.27-1.47-4.91-2.21,1.43-1.15,2.87-2.3,4.3-3.44.45-.05.9-.11,1.35-.16-.35.54-.7,1.07-1.05,1.61.51.45,1.02.91,1.53,1.36-.37.42-.74.83-1.1,1.25.34.49.68.98,1.02,1.47l-1.13.12Z"/>
            <path class="cls-27" d="m179.81,143c-.36-.16-.72-.33-1.08-.49.32-.27.64-.53.96-.8.07.09.21.31.24.63.03.31-.07.55-.12.65Z"/>
            <line class="cls-27" x1="218.08" y1="139.01" x2="199.44" y2="140.89"/>
            <line class="cls-27" x1="192.42" y1="142.41" x2="184.91" y2="143.14"/>
          </g>
          <g>
            <path class="cls-27" d="m170.6,135.59c1.63-.98,3.26-1.95,4.89-2.93-1.65-1.03-3.3-2.06-4.95-3.09-13.87.13-22.75-.16-36.62-.02-.26.56-.68,1.66-.65,3.1.03,1.35.44,2.38.71,2.92,13.87-.13,22.75.16,36.62.02Z"/>
            <line class="cls-27" x1="143.76" y1="131.44" x2="164.33" y2="131.25"/>
            <path class="cls-27" d="m170.69,135.59c1.63-.98,3.26-1.95,4.89-2.93-1.65-1.03-3.3-2.06-4.95-3.09-.48,0-.96,0-1.44,0,.44.52.87,1.04,1.31,1.56-.48.54-.96,1.08-1.44,1.62.44.39.88.79,1.32,1.18-.3.56-.59,1.12-.89,1.67h1.2Z"/>
            <path class="cls-27" d="m174.5,133.3c.36-.22.72-.43,1.08-.65-.37-.24-.74-.48-1.11-.72-.06.1-.19.35-.18.69,0,.33.14.57.21.67Z"/>
            <line class="cls-27" x1="133.73" y1="133.84" x2="153.58" y2="133.5"/>
            <line class="cls-27" x1="161.15" y1="134.24" x2="169.14" y2="134.08"/>
          </g>
        </g>
        <g>
          <g>
            <path class="cls-11" d="m183.12,143.7c-1.64-.74-3.27-1.47-4.91-2.21,1.43-1.15,2.87-2.3,4.3-3.44,13.01-1.4,21.31-2.65,34.32-4.06.31.5.82,1.48.95,2.83.12,1.27-.15,2.28-.34,2.82-13.01,1.4-21.31,2.65-34.32,4.06Z"/>
            <line class="cls-11" x1="207.82" y1="136.85" x2="188.52" y2="138.94"/>
            <path class="cls-2" d="m183.04,143.71c-1.64-.74-3.27-1.47-4.91-2.21,1.43-1.15,2.87-2.3,4.3-3.44.45-.05.9-.11,1.35-.16-.35.54-.7,1.07-1.05,1.61.51.45,1.02.91,1.53,1.36-.37.42-.74.83-1.1,1.25.34.49.68.98,1.02,1.47l-1.13.12Z"/>
            <path class="cls-11" d="m179.21,141.99c-.36-.16-.72-.33-1.08-.49.32-.27.64-.53.96-.8.07.09.21.31.24.63.03.31-.07.55-.12.65Z"/>
            <line class="cls-11" x1="217.49" y1="138" x2="198.85" y2="139.87"/>
            <line class="cls-11" x1="191.83" y1="141.39" x2="184.32" y2="142.12"/>
          </g>
          <g>
            <path class="cls-15" d="m170.01,134.57c1.63-.98,3.26-1.95,4.89-2.93-1.65-1.03-3.3-2.06-4.95-3.09-13.87.13-22.75-.16-36.62-.02-.26.56-.68,1.66-.65,3.1.03,1.35.44,2.38.71,2.92,13.87-.13,22.75.16,36.62.02Z"/>
            <line class="cls-15" x1="143.17" y1="130.43" x2="163.74" y2="130.23"/>
            <path class="cls-13" d="m170.09,134.57c1.63-.98,3.26-1.95,4.89-2.93-1.65-1.03-3.3-2.06-4.95-3.09-.48,0-.96,0-1.44,0,.44.52.87,1.04,1.31,1.56-.48.54-.96,1.08-1.44,1.62.44.39.88.79,1.32,1.18-.3.56-.59,1.12-.89,1.67h1.2Z"/>
            <path class="cls-17" d="m173.9,132.29c.36-.22.72-.43,1.08-.65-.37-.24-.74-.48-1.11-.72-.06.1-.19.35-.18.69,0,.33.14.57.21.67Z"/>
            <line class="cls-15" x1="133.13" y1="132.82" x2="152.98" y2="132.49"/>
            <line class="cls-15" x1="160.56" y1="133.22" x2="168.55" y2="133.06"/>
          </g>
          <g class="cls-29">
            <path class="cls-27" d="m146.36,138.79c-.63,1.79-1.26,3.58-1.9,5.38,1.93-.26,3.86-.52,5.78-.78,10.59-8.95,17.62-14.39,28.21-23.34-.16-.6-.53-1.71-1.47-2.8-.88-1.02-1.86-1.55-2.41-1.8-10.59,8.95-17.62,14.39-28.21,23.34Z"/>
            <line class="cls-27" x1="169.68" y1="124.86" x2="153.96" y2="138.13"/>
            <path class="cls-27" d="m146.3,138.84c-.63,1.79-1.26,3.58-1.9,5.38,1.93-.26,3.86-.52,5.78-.78.37-.31.74-.61,1.11-.92-.67-.12-1.34-.25-2-.37.02-.72.05-1.44.07-2.16-.59-.02-1.18-.05-1.77-.07-.13-.62-.25-1.24-.38-1.86l-.92.78Z"/>
            <path class="cls-27" d="m144.82,143.03c-.14.4-.28.79-.42,1.19.44-.05.88-.1,1.31-.16-.02-.12-.08-.39-.31-.65-.22-.25-.48-.35-.59-.39Z"/>
            <line class="cls-27" x1="175.88" y1="116.61" x2="160.8" y2="129.53"/>
            <line class="cls-27" x1="154.5" y1="133.8" x2="148.45" y2="139.02"/>
          </g>
          <g>
            <path class="cls-3" d="m145.77,137.77c-.63,1.79-1.26,3.58-1.9,5.38,1.93-.26,3.86-.52,5.78-.78,10.59-8.95,17.62-14.39,28.21-23.34-.16-.6-.53-1.71-1.47-2.8-.88-1.02-1.86-1.55-2.41-1.8-10.59,8.95-17.62,14.39-28.21,23.34Z"/>
            <line class="cls-3" x1="169.09" y1="123.84" x2="153.37" y2="137.11"/>
            <path class="cls-13" d="m145.71,137.83c-.63,1.79-1.26,3.58-1.9,5.38,1.93-.26,3.86-.52,5.78-.78.37-.31.74-.61,1.11-.92-.67-.12-1.34-.25-2-.37.02-.72.05-1.44.07-2.16-.59-.02-1.18-.05-1.77-.07-.13-.62-.25-1.24-.38-1.86l-.92.78Z"/>
            <path class="cls-9" d="m144.23,142.01c-.14.4-.28.79-.42,1.19.44-.05.88-.1,1.31-.16-.02-.12-.08-.39-.31-.65-.22-.25-.48-.35-.59-.39Z"/>
            <line class="cls-3" x1="175.28" y1="115.59" x2="160.21" y2="128.52"/>
            <line class="cls-3" x1="153.91" y1="132.78" x2="147.86" y2="138"/>
          </g>
        </g>
        <rect class="cls-33" x="-16.71" y="-26.46" width="254.08" height="204.21"/>
        <rect class="cls-35" x="-39.94" y="-50.88" width="305.3" height="233.05"/>
      </g>
    </g>
  </g>
</svg>