<?xml version="1.0" encoding="UTF-8"?>
<svg xmlns="http://www.w3.org/2000/svg" xmlns:xlink="http://www.w3.org/1999/xlink" viewBox="0 0 152 244">
  <defs>
    <style>
      .cls-1 {
        stroke-width: 1.56px;
      }

      .cls-1, .cls-2, .cls-3, .cls-4, .cls-5 {
        stroke-linecap: round;
        stroke-linejoin: round;
      }

      .cls-1, .cls-3, .cls-6, .cls-5 {
        fill: none;
      }

      .cls-1, .cls-5 {
        stroke: #ffe3bb;
      }

      .cls-7 {
        fill: #fff6e3;
        opacity: .34;
      }

      .cls-7, .cls-8, .cls-9, .cls-6, .cls-10, .cls-11, .cls-12, .cls-13, .cls-14 {
        stroke-width: 0px;
      }

      .cls-7, .cls-10, .cls-12, .cls-13 {
        mix-blend-mode: overlay;
      }

      .cls-8 {
        fill: #d69c36;
      }

      .cls-2 {
        fill: #fed77a;
      }

      .cls-2, .cls-3 {
        stroke: #d69c36;
        stroke-width: 2px;
      }

      .cls-9 {
        fill: #fff2dc;
      }

      .cls-15 {
        isolation: isolate;
      }

      .cls-4 {
        fill: #382e37;
        stroke: #2e272d;
        stroke-width: 1.79px;
      }

      .cls-5 {
        stroke-width: 1.99px;
      }

      .cls-10 {
        opacity: .53;
      }

      .cls-10, .cls-16 {
        fill: #fcd2df;
      }

      .cls-16 {
        stroke: #ba869a;
        stroke-miterlimit: 10;
        stroke-width: 1.18px;
      }

      .cls-17 {
        clip-path: url(#clippath);
      }

      .cls-11 {
        fill: #9925a5;
      }

      .cls-12 {
        fill: url(#_Безымянный_градиент_65);
        opacity: .54;
      }

      .cls-13 {
        fill: #ffda40;
        opacity: .32;
      }

      .cls-14 {
        fill: #2e272d;
        opacity: .45;
      }

      .cls-18 {
        opacity: .71;
      }
    </style>
    <clipPath id="clippath">
      <rect class="cls-6" width="152.23" height="244.24"/>
    </clipPath>
    <radialGradient id="_Безымянный_градиент_65" data-name="Безымянный градиент 65" cx="76.2" cy="122.12" fx="76.2" fy="122.12" r="152.33" gradientUnits="userSpaceOnUse">
      <stop offset="0" stop-color="#fcd495"/>
      <stop offset=".73" stop-color="#7a4f6e"/>
      <stop offset=".99" stop-color="#4b1f60"/>
    </radialGradient>
  </defs>
  <g class="cls-15">
    <g id="_Слой_3" data-name="Слой 3">
      <g class="cls-17">
        <g>
          <rect class="cls-11" x="-27.9" y="-34.94" width="206.59" height="299.53"/>
          <g>
            <circle class="cls-13" cx="76" cy="122" r="116.99"/>
            <circle class="cls-13" cx="76" cy="122" r="84.32"/>
            <circle class="cls-13" cx="76" cy="122" r="53.41"/>
          </g>
          <g>
            <path class="cls-4" d="m133.09,126.47v-1.77s0,0,0,0c0-.18.02-.35.02-.53,0-12.39-8.31-22.44-18.55-22.44-.34,0-.68.02-1.02.04-1.92-9.92-9.26-17.31-18.05-17.31-5.06,0-9.63,2.45-12.98,6.42-3.35-3.96-7.92-6.42-12.98-6.42-8.79,0-16.14,7.4-18.05,17.33-.34-.02-.67-.06-1.01-.06-10.25,0-18.55,10.05-18.55,22.44,0,.65.04,1.29.08,1.93h-.11l-10.35,166.99h122.16l-10.6-166.62Z"/>
            <path class="cls-14" d="m70.09,86.38c1.95.12,3.81.61,5.53,1.4,4.63,2.12,9.86,2.46,14.72.94,1.81-.56,3.71-.81,5.66-.69,8.77.56,15.63,8.41,16.91,18.43.34,0,.68,0,1.02.02,10.23.65,17.88,11.21,17.09,23.57-.01.18-.04.35-.06.53h.02s-.06.9-.06.9c-.04.58-.05,1.16-.05,1.74.04,5.08-.54,12.78-3.74,21.46-.32.88-.66,1.73-1.01,2.56-1.51,3.57-2.88,5.86-3.29,6.62-2.21,4.19.47,8.72,1.58,16.43.49,3.37.27,7.05-.17,14.42-.65,11.01-5.95,35.66-17.3,66.83,1.11,10.1,4.09,28.68,12.38,29.95.25.04.43.04.59.06,12.46,1.25,23.06-8.98,22.27-21.47l-9.04-142.04c-.03-.48-.04-.96-.04-1.44v-1.05s-.01,0-.01,0c0-.18.02-.35.02-.53,0-12.39-8.31-22.44-18.55-22.44-.34,0-.68.02-1.02.04-1.92-9.92-9.26-17.31-18.05-17.31-1.95,0-3.84.37-5.61,1.05-4.75,1.82-9.99,1.82-14.75,0-1.77-.68-3.65-1.05-5.61-1.05-6.46,0-12.13,4.01-15.45,10.07,3.7-5.79,9.59-9.4,16.01-8.99Z"/>
            <g>
              <g>
                <path class="cls-16" d="m102.3,140.59c-3-1.88-5.41-4.39-7.04-7.35-2.61-4.74-8.01-8-14.26-8s-11.48,3.16-14.14,7.79c-1.64,2.86-3.98,5.32-6.94,7.11-4.74,2.87-7.69,7.97-7.01,13.65.79,6.57,6.59,11.9,13.82,12.71,4.21.47,8.14-.55,11.25-2.56,1.73-1.12,3.98-1.11,5.68.07,3.11,2.15,7.12,3.28,11.43,2.84,7.31-.74,13.21-6.11,14.01-12.74.67-5.6-2.18-10.63-6.8-13.52Z"/>
                <path class="cls-16" d="m75.29,106.13c-.73,3.76-3.37,8.73-7.47,8.88-4.13.16-7.28-4.67-7.97-8.88-1.2-7.25,4.41-15.52,9.1-14.81,4.18.64,7.59,8.38,6.34,14.81Z"/>
                <path class="cls-16" d="m54.52,126.05c-.73,3.76-3.37,8.73-7.47,8.88-4.13.16-7.28-4.67-7.97-8.88-1.2-7.25,4.41-15.52,9.1-14.81,4.18.64,7.59,8.38,6.34,14.81Z"/>
                <path class="cls-16" d="m88.9,106.13c.73,3.76,3.37,8.73,7.47,8.88,4.13.16,7.28-4.67,7.97-8.88,1.2-7.25-4.41-15.52-9.1-14.81-4.18.64-7.59,8.38-6.34,14.81Z"/>
                <path class="cls-16" d="m111.01,126.05c.73,3.76,3.37,8.73,7.47,8.88,4.13.16,7.28-4.67,7.97-8.88,1.2-7.25-4.41-15.52-9.1-14.81-4.18.64-7.59,8.38-6.34,14.81Z"/>
              </g>
              <g>
                <path class="cls-10" d="m74.93,129.77c-6.18,2.26-9.81,10.48-7.67,13.57,1.28,1.84,4.73,1.85,6.89,1.27,1.01-.27,2.27-.83,6.41-5.29,3.75-4.04,5.62-6.08,5.29-7.28-.68-2.45-6.48-3.89-10.93-2.27Z"/>
                <path class="cls-10" d="m47.21,114.21c1.44.68.5,5.83-1.2,9.48-.63,1.36-1.68,3.62-2.83,3.51-1.14-.11-1.86-2.5-2.01-4.06-.36-3.72,2.17-6.42,2.79-7.03.79-.79,2.34-2.33,3.25-1.9Z"/>
                <path class="cls-10" d="m66.32,95.36c-2,.15-2.94,3.16-3.21,4.02-.91,2.95-.29,6.69,1.16,7.07.73.19,1.48-.53,2.81-1.84.71-.69,2.27-2.45,2.69-4.94.03-.19.04-.38.02-.6-.12-1.85-1.85-3.84-3.47-3.71Z"/>
                <path class="cls-10" d="m95.56,95.15c1.29.43,1.21,4.4.67,6.92-.3,1.36-.8,3.7-2.16,4.15-1.39.46-3.13-1.23-3.56-3.04-.87-3.66,3.43-8.57,5.05-8.03Z"/>
                <path class="cls-10" d="m115.41,128.44c1.54.19,3.7-4.23,3.83-8.26.04-1.24.12-3.61-1.17-4.24-1.16-.57-2.91.53-3.81,1.63-1.46,1.79-1.13,4.15-.88,5.93.15,1.08.68,4.76,2.03,4.93Z"/>
              </g>
            </g>
          </g>
          <g>
            <path class="cls-2" d="m103.89-28.32c11.26,3.06,17.63,19.7,14.22,37.18-1.61,8.27-5.13,15.24-9.59,19.97-.49.52-.54,1.32-.12,1.95.88,1.35,1.68,2.77,2.39,4.24.45.94,1.62,1.16,2.29.46,3.66-3.8,7.48-5.48,10.5-4.05,5.65,2.67,6.28,15.2,1.42,27.98-4.37,11.46-11.68,19.22-17.22,18.76-.57-.05-1.07.3-1.3.85-5.75,13.76-18,21.74-30.1,18.46-12.13-3.3-20.21-16.87-20.24-32.27,0-.15-.02-.3-.07-.45-2.02-6.3-2.54-13.34-1.17-20.38,1.2-6.17,3.71-11.57,7.11-15.93.49-.64.4-1.58-.21-2.15-.43-.4-.86-.81-1.28-1.22-12.76-12.67-16.92-29.97-9.29-38.64,5.94-6.76,18.55,2.2,29.4,9.4.73.48,1.65.22,2.01-.56,5.19-11.33,12.76-25.9,21.26-23.59Z"/>
            <g>
              <path class="cls-8" d="m85.5,86.1c-.77,0-1.54-.3-2.17-.83-1.48-1.28-1.78-3.53-.67-5.02.58-.77,1.46-1.22,2.41-1.22.77,0,1.54.3,2.17.83,1.48,1.27,1.78,3.53.67,5.02-.58.77-1.46,1.22-2.41,1.22h0Z"/>
              <path class="cls-8" d="m85.07,79.81c.59,0,1.18.23,1.66.64,1.16,1,1.41,2.81.55,3.97-.44.58-1.07.9-1.79.9-.59,0-1.18-.23-1.66-.64-1.16-1-1.41-2.81-.55-3.97.44-.58,1.07-.91,1.79-.91m0-1.56c-1.16,0-2.28.52-3.03,1.53-1.36,1.82-1.01,4.54.78,6.08.8.68,1.75,1.02,2.67,1.02,1.16,0,2.28-.52,3.03-1.53,1.36-1.82,1.01-4.54-.78-6.08-.8-.68-1.75-1.02-2.67-1.02h0Z"/>
            </g>
            <g>
              <path class="cls-3" d="m99.07,69.74c-3.71-5.39-9.84-9.06-16.99-10.38-6.36-1.17-12.32-.25-16.89,2.66"/>
              <g>
                <path class="cls-3" d="m101.51,57.25c.59-3.74-1.49-7.37-4.65-8.1-3.16-.73-6.21,1.71-6.8,5.45"/>
                <path class="cls-3" d="m90.06,54.6c.59-3.74-1.49-7.37-4.65-8.1-3.16-.73-6.21,1.71-6.8,5.45"/>
                <path class="cls-3" d="m97.07,47.83c.59-3.74-1.49-7.37-4.65-8.1-3.16-.73-6.21,1.71-6.8,5.45"/>
                <path class="cls-3" d="m85.62,45.18c.59-3.74-1.49-7.37-4.65-8.1s-6.21,1.71-6.8,5.45"/>
                <path class="cls-3" d="m78.61,51.95c.59-3.74-1.49-7.37-4.65-8.1-3.16-.73-6.21,1.71-6.8,5.45"/>
              </g>
              <path class="cls-3" d="m71.49,20.54c-2.12-1.31-5.68-3.88-8.86-8.31-3.18-4.42-4.55-8.69-5.17-11.18"/>
              <path class="cls-3" d="m75.13,16.39c-1.58-1.81-3.37-4.26-4.86-7.41-1.35-2.84-2.11-5.51-2.55-7.76"/>
              <path class="cls-3" d="m100.56,19.96c1.64-1.77,4.26-5.1,5.95-10.12,1.69-5.02,1.69-9.46,1.51-12"/>
              <path class="cls-3" d="m95.77,16.88c.96-2.12,1.92-4.91,2.38-8.3.42-3.06.33-5.81.05-8.07"/>
              <path class="cls-3" d="m111.48,65.89c2.2-1.52,5.2-3.98,7.54-7.58,2-3.07,2.85-5.93,3.24-8.04"/>
              <path class="cls-3" d="m112.92,54.34c.75-.8,1.64-1.87,2.34-3.12.76-1.37,1.04-2.5,1.14-3.3"/>
            </g>
            <g class="cls-18">
              <path class="cls-7" d="m117.72,36.57c1.92-2.09,3.85-3.37,5.75-4.07-2.13-1.3-5.6-.26-8.62,2.64.19.34.38.67.56,1.02.47.93,1.64,1.13,2.3.41Z"/>
              <path class="cls-7" d="m81.77,96.99c-12.36-2.3-20.18-16.38-20.21-31.78,0-.15-.02-.3-.07-.45-2.02-6.3-2.54-13.34-1.17-20.38,1.2-6.17,3.71-11.57,7.11-15.93.49-.64.4-1.58-.21-2.15-.43-.4-.85-.81-1.28-1.22-12.76-12.67-16.92-29.97-9.29-38.64,1-1.13,2.18-1.82,3.51-2.15-3.18-.61-5.93-.12-7.92,2.15-7.62,8.68-3.46,25.98,9.29,38.64.42.42.85.83,1.28,1.22.62.57.71,1.52.21,2.15-3.39,4.36-5.9,9.77-7.11,15.93-1.37,7.04-.85,14.08,1.17,20.38.05.14.07.3.07.45.03,15.4,8.23,28.9,20.02,31.41,1.73.37,5.93.95,8.4.25-1.72,0-3.29.21-3.8.12Z"/>
            </g>
            <path class="cls-7" d="m83.77,80.11c-.35-.25-1.59.36-1.84,1.34-.3,1.16.88,2.44,1.31,2.32.17-.05.15-.29.43-2.08.19-1.25.25-1.48.1-1.59Z"/>
          </g>
          <g>
            <path class="cls-9" d="m47.66,43c-13.91,1.7-14.84,3.07-15.99,23.63-1.15-20.56-2.08-21.94-15.99-23.63,13.91-1.7,14.84-3.07,15.99-23.63,1.15,20.56,2.08,21.94,15.99,23.63Z"/>
            <path class="cls-1" d="m47.66,43c-13.91,1.7-14.84,3.07-15.99,23.63-1.15-20.56-2.08-21.94-15.99-23.63,13.91-1.7,14.84-3.07,15.99-23.63,1.15,20.56,2.08,21.94,15.99,23.63Z"/>
          </g>
          <g>
            <path class="cls-9" d="m158.26,85.63c-17.83,2.17-19.02,3.94-20.49,30.29-1.47-26.35-2.66-28.12-20.49-30.29,17.83-2.17,19.02-3.94,20.49-30.29,1.47,26.35,2.66,28.12,20.49,30.29Z"/>
            <path class="cls-5" d="m158.26,85.63c-17.83,2.17-19.02,3.94-20.49,30.29-1.47-26.35-2.66-28.12-20.49-30.29,17.83-2.17,19.02-3.94,20.49-30.29,1.47,26.35,2.66,28.12,20.49,30.29Z"/>
          </g>
          <g>
            <path class="cls-9" d="m42.4,160.52c-20.18,2.46-21.53,4.45-23.19,34.28-1.66-29.83-3.01-31.82-23.19-34.28,20.18-2.46,21.53-4.45,23.19-34.28,1.66,29.83,3.01,31.82,23.19,34.28Z"/>
            <path class="cls-1" d="m42.4,160.52c-20.18,2.46-21.53,4.45-23.19,34.28-1.66-29.83-3.01-31.82-23.19-34.28,20.18-2.46,21.53-4.45,23.19-34.28,1.66,29.83,3.01,31.82,23.19,34.28Z"/>
          </g>
          <g>
            <path class="cls-9" d="m42.59,184.45c-7.84.96-8.36,1.73-9.01,13.31-.65-11.58-1.17-12.36-9.01-13.31,7.84-.96,8.36-1.73,9.01-13.31.65,11.58,1.17,12.36,9.01,13.31Z"/>
            <path class="cls-1" d="m42.59,184.45c-7.84.96-8.36,1.73-9.01,13.31-.65-11.58-1.17-12.36-9.01-13.31,7.84-.96,8.36-1.73,9.01-13.31.65,11.58,1.17,12.36,9.01,13.31Z"/>
          </g>
          <rect class="cls-12" width="152.4" height="244.24"/>
        </g>
      </g>
    </g>
  </g>
</svg>