<?xml version="1.0" encoding="UTF-8"?>
<svg xmlns="http://www.w3.org/2000/svg" xmlns:xlink="http://www.w3.org/1999/xlink" viewBox="0 0 159.43 129.12">
  <defs>
    <style>
      .cls-1 {
        isolation: isolate;
      }

      .cls-2, .cls-3, .cls-4, .cls-5 {
        stroke-width: 0px;
      }

      .cls-6 {
        opacity: .38;
        stroke: #f50;
        stroke-miterlimit: 10;
        stroke-width: 4px;
      }

      .cls-6, .cls-3 {
        fill: none;
      }

      .cls-6, .cls-4 {
        mix-blend-mode: overlay;
      }

      .cls-7 {
        mix-blend-mode: screen;
      }

      .cls-8 {
        clip-path: url(#clippath);
      }

      .cls-4 {
        fill: url(#_Безымянный_градиент_21);
      }

      .cls-9 {
        fill: #fff;
        stroke: #000;
        stroke-linecap: round;
        stroke-linejoin: round;
        stroke-width: 1.12px;
      }

      .cls-5 {
        fill: #ffce00;
      }
    </style>
    <clipPath id="clippath">
      <rect class="cls-3" x="0" y="0" width="159.43" height="129.12"/>
    </clipPath>
    <radialGradient id="_Безымянный_градиент_21" data-name="Безымянный градиент 21" cx="80.9" cy="61.29" fx="80.9" fy="61.29" r="102.61" gradientUnits="userSpaceOnUse">
      <stop offset="0" stop-color="#e50056"/>
      <stop offset=".19" stop-color="#e20358"/>
      <stop offset=".35" stop-color="#d90d5e"/>
      <stop offset=".5" stop-color="#ca1f69"/>
      <stop offset=".64" stop-color="#b63779"/>
      <stop offset=".77" stop-color="#9b578d"/>
      <stop offset=".91" stop-color="#7b7da6"/>
      <stop offset="1" stop-color="#609ebb"/>
    </radialGradient>
  </defs>
  <g class="cls-1">
    <g id="_Слой_8" data-name="Слой 8">
      <g class="cls-8">
        <rect class="cls-5" x="-3.56" y="-23.46" width="174.02" height="158.7"/>
        <g class="cls-7">
          <path class="cls-6" d="m61.06-46.64C77.34,7.29,97.29,22.56,112.96,26.12c22.83,5.19,40.75-13.49,72.25-6.61,18.52,4.04,31.95,14.78,40.2,22.9"/>
          <path class="cls-6" d="m38.41-20.57c16.28,53.94,36.23,69.2,51.9,72.76,22.83,5.19,40.75-13.49,72.25-6.61,18.52,4.04,31.95,14.78,40.2,22.9"/>
          <path class="cls-6" d="m-4.51-13.07C15.9,54.54,40.91,73.67,60.55,78.14c28.62,6.51,51.08-16.91,90.57-8.29,23.21,5.07,40.05,18.53,50.39,28.7"/>
          <path class="cls-6" d="m-23.29,11.34C-2.89,78.95,22.13,98.08,41.77,102.55c28.62,6.51,51.08-16.91,90.57-8.29,23.21,5.07,40.05,18.53,50.39,28.7"/>
          <path class="cls-6" d="m-48.25,36.69C-27.85,104.3-2.83,123.43,16.81,127.9c28.62,6.51,51.08-16.91,90.57-8.29,23.21,5.07,40.05,18.53,50.39,28.7"/>
        </g>
        <rect class="cls-4" x="-3.82" y="-20.44" width="169.44" height="163.46"/>
        <g>
          <path class="cls-9" d="m73.57,6.84C40.76,6.84,14.16,23.38,14.16,43.78c0,11.42,8.34,21.63,21.44,28.41-1,1.2-2.24,2.44-3.78,3.62-9.16,7.03-21.45,6.46-23.66,6.32,5.76.41,14.77.5,25.27-1.69,4.97-1.04,9.33-2.39,13.04-3.8,8.13,2.6,17.33,4.07,27.1,4.07,32.81,0,59.41-16.54,59.41-36.94S106.38,6.84,73.57,6.84Z"/>
          <g>
            <path class="cls-2" d="m39.99,48.27c-.81,0-1.51-.12-2.1-.36s-1.06-.59-1.42-1.05c-.41.41-.82.71-1.21.92-.39.21-.78.31-1.15.31-.85,0-1.65-.35-2.4-1.04-.75-.69-1.13-1.45-1.13-2.28,0-1.41.56-2.71,1.67-3.88,1.11-1.17,2.38-1.75,3.79-1.75.32,0,.59.12.8.36s.32.52.32.86c0,.46-.38.8-1.15,1.02-1.02.29-1.74.62-2.16,1-.62.54-.93,1.34-.93,2.4,0,.22.1.44.31.64.24.23.53.34.88.32.67-.03,1.28-.65,1.85-1.86.51-1.05.97-1.58,1.36-1.58.32,0,.58.12.78.36s.3.53.3.87c0,.15-.03.38-.07.69-.05.31-.07.54-.07.69,0,.5.21.81.64.94.17.05.53.08,1.09.08,1.05,0,1.78-.26,2.2-.77.38-.46.57-1.22.57-2.28,0-1.87-.75-3.4-2.26-4.59-1.38-1.09-3.02-1.63-4.93-1.63-2.22,0-3.97.84-5.23,2.52-1.14,1.5-1.71,3.38-1.71,5.65,0,2.09.67,3.86,2.01,5.3,1.39,1.5,3.18,2.25,5.37,2.25.62,0,1.32-.12,2.1-.36l2.01-.75c.34-.12.55-.18.65-.18.31,0,.58.12.81.37.23.25.34.54.34.87,0,.73-.81,1.31-2.44,1.77-1.23.34-2.38.5-3.45.5s-2.18-.21-3.31-.62c-1.13-.42-2.09-.97-2.89-1.67-2.37-2.05-3.55-4.54-3.55-7.48s.81-5.39,2.43-7.36c1.72-2.11,4.01-3.16,6.87-3.16,2.58,0,4.8.78,6.64,2.33,1.93,1.64,2.9,3.72,2.9,6.24,0,1.72-.42,3.04-1.26,3.97-.88.96-2.17,1.43-3.86,1.43Z"/>
            <path class="cls-2" d="m47.42,37.92c0-.28.1-.54.3-.76s.44-.33.71-.33c.18,0,1.22.37,3.11,1.11-.06-1.06-.09-1.8-.09-2.2,0-.3.1-.54.29-.73.19-.19.44-.29.73-.29s.54.1.74.29c.19.19.29.44.29.73,0,.42.02,1.07.07,1.94,1.83-.28,2.96-.41,3.37-.41.28,0,.52.1.7.3.19.2.28.45.28.74,0,.54-.29.86-.86.99-.54.11-1.48.25-2.83.41.44.41.92.92,1.44,1.56.68.84,1.02,1.43,1.02,1.75,0,.28-.11.51-.32.72-.21.2-.46.3-.73.3-.29,0-.55-.14-.79-.41-.47-.63-1.23-1.52-2.28-2.69-1.57,1.78-2.64,2.67-3.2,2.67-.28,0-.52-.11-.73-.32-.21-.21-.32-.46-.32-.73,0-.26.12-.51.37-.76.49-.41,1.2-1.07,2.13-1.98-.63-.2-1.54-.53-2.75-1-.44-.19-.65-.49-.65-.89Z"/>
            <path class="cls-2" d="m63.5,46.38l1.4-4.76h-3.06c-.73,0-1.09-.38-1.09-1.15,0-.58.57-.87,1.7-.87h3.03c.2-.89.5-2.09.91-3.62.22-.7.67-1.05,1.34-1.05.25,0,.46.1.63.3.16.2.25.43.25.67,0,.31-.1.81-.3,1.51-.34,1.22-.53,1.95-.58,2.19h5.56c.26-.92.62-2.16,1.07-3.7.2-.65.57-.97,1.12-.97.64,0,.96.3.96.89,0,.52-.32,1.78-.95,3.78h2.24c.78,0,1.17.29,1.17.86,0,.8-.43,1.2-1.3,1.2-.11,0-.29,0-.53-.02-.24-.02-.42-.02-.53-.02h-1.67l-1.22,4.76h2.34c.56,0,.95.04,1.18.13.4.15.6.46.6.92,0,.7-.33,1.05-1,1.05h-3.69l-1.03,3.73c-.21.74-.63,1.11-1.28,1.11s-.94-.3-.94-.91c0-.45.13-1.11.38-1.97.35-1.2.54-1.85.56-1.96h-5.73c-.23.89-.63,2.21-1.2,3.94-.22.54-.6.81-1.12.81-.61,0-.92-.3-.92-.91,0-.3.09-.73.26-1.3.27-.86.54-1.71.8-2.56h-2.19c-.63,0-.95-.38-.95-1.14,0-.3.13-.54.39-.72.22-.16.49-.24.8-.24h2.63Zm2.14,0h5.73l1.3-4.76h-5.6l-1.43,4.76Z"/>
            <path class="cls-2" d="m84.19,41.06c-1.07,0-1.91-.37-2.53-1.11-.57-.7-.86-1.58-.86-2.66,0-.75.39-1.46,1.17-2.14.75-.65,1.5-.97,2.26-.97,1.11,0,1.99.37,2.65,1.1.63.71.94,1.62.94,2.74,0,.93-.39,1.69-1.17,2.26-.7.53-1.51.79-2.45.79Zm0-4.96c-.35,0-.68.11-.99.34-.33.25-.49.54-.49.85,0,.61.12,1.07.37,1.38.25.31.62.46,1.11.46.41,0,.79-.09,1.12-.28.38-.21.57-.5.57-.85,0-.64-.14-1.12-.42-1.44s-.71-.48-1.27-.48Zm9.07.07c-.28.46-.58,1.07-.91,1.82l-.81,1.86-2.27,4.87-2.57,5.41c-.24.59-.62,1.46-1.16,2.6-.21.41-.5.61-.86.61-.25,0-.48-.09-.68-.27-.2-.18-.3-.4-.3-.67,0-.11.02-.24.07-.38.37-1.03.98-2.38,1.81-4.05.99-1.96,1.63-3.3,1.93-4l3.1-6.88c.41-1.02.79-1.71,1.14-2.09.24-.26.48-.39.73-.39s.49.1.69.29c.2.2.3.42.3.68,0,.17-.07.36-.21.57Zm.3,17.05c-1.04,0-1.9-.31-2.59-.93-.72-.65-1.08-1.49-1.08-2.53,0-1.13.32-2.07.96-2.81.67-.79,1.57-1.19,2.68-1.19,1.04,0,1.95.29,2.73.87.86.65,1.3,1.48,1.3,2.5,0,1.17-.37,2.14-1.12,2.92s-1.71,1.17-2.88,1.17Zm-.02-5.54c-.55,0-.98.21-1.3.62-.28.38-.42.87-.42,1.46,0,.51.17.9.5,1.16.33.26.83.39,1.5.39.61,0,1.07-.18,1.37-.54.3-.36.45-.91.45-1.63,0-.44-.24-.81-.71-1.09-.41-.24-.88-.36-1.39-.36Z"/>
            <path class="cls-2" d="m107.15,34.24v1.94h.05c.73,0,1.57.13,2.51.38,1.23.33,1.85.75,1.85,1.26,0,.67-.34,1.01-1.02,1.01-.31,0-.84-.08-1.61-.25-.77-.16-1.36-.24-1.77-.23v4.67c1.69.15,3.01.71,3.97,1.66.87.89,1.31,1.96,1.31,3.21,0,1.54-.53,2.81-1.59,3.82-.94.89-2.17,1.47-3.68,1.75v3.05c0,.3-.1.54-.29.74-.19.2-.44.29-.74.29-.67,0-1.01-.34-1.01-1.01v-2.92c-3.73-.05-5.6-1.02-5.6-2.9,0-.69.32-1.03.95-1.03.36,0,.7.14,1.03.42.49.42.86.7,1.11.83.61.31,1.44.48,2.5.53v-6.5h-.09c-1.18-.05-2.21-.34-3.07-.87-1.07-.66-1.61-1.57-1.61-2.74,0-1.05.49-2.03,1.47-2.96.9-.86,2-1.48,3.3-1.87v-2.2c0-.3.1-.55.3-.75s.45-.3.75-.3c.66,0,.99.32.99.97Zm-2.04,8.59v-4.12c-1.52.57-2.28,1.46-2.28,2.66,0,.74.76,1.23,2.28,1.46Zm2.04,2.42v5.96c.81-.28,1.49-.68,2.03-1.22.6-.61.91-1.27.91-1.98,0-1.33-.98-2.25-2.94-2.76Z"/>
            <path class="cls-2" d="m118.46,52.73c0,.28-.11.51-.33.72-.22.2-.46.3-.74.3-.31,0-.61-.2-.92-.6-.3-.37-.45-.72-.45-1.03,0-.28.11-.51.33-.71.22-.2.47-.3.75-.3.3,0,.6.2.92.6.29.37.44.71.44,1.02Zm-.01-17.12v12.76c0,.68-.34,1.02-1.02,1.02s-1.02-.34-1.02-1.02c0-.31,0-.78-.03-1.4-.02-.62-.03-1.09-.03-1.39,0-1.11,0-2.77.03-4.98.02-2.21.03-3.87.03-4.98,0-.68.34-1.02,1.02-1.02s1.02.34,1.02,1.02Z"/>
          </g>
        </g>
        <g>
          <path class="cls-9" d="m136.96,115.13c4.86-3.71,7.89-8.93,7.89-14.72,0-11.24-11.39-20.35-25.44-20.35s-25.44,9.11-25.44,20.35,11.39,20.35,25.44,20.35c5.53,0,10.64-1.42,14.81-3.81.97.24,1.99.43,3.08.53,4.93.46,8.79-.94,10.69-1.78-.64.24-5.77,2.05-11.02-.57Z"/>
          <path class="cls-9" d="m107.66,111.9c2.47.07,1.85-10.3,8.56-15.95,3.68-3.1,10.07-5.19,13.1-2.46,3.15,2.83,2.09,10.35-.65,11.41-4.04,1.57-9.59-11.78-16.6-10.5-3.22.59-6.42,4.19-6.09,7.91.38,4.34,5.46,7.61,7.52,6.61,3.02-1.45-1.75-11.35,3.5-16.6,1.93-1.93,4.86-2.89,5.71-2.07,1.71,1.65-6.64,9.26-5.06,18.67.14.86.82,4.9,2.98,5.45,2.6.65,6.96-3.84,6.22-6.61-1.08-4.09-12.44-1.2-16.34-7.52-1.99-3.22-1.63-8.15,1.04-11.02,3.5-3.77,10.57-3.53,13.23-.52,4.61,5.22-1.37,21.83-9.72,22.56-3.49.3-7.89-2.11-10.24-5.42-1.14-1.6-1.65-3.22-1.82-3.79-.27-.93-.95-3.38-.2-6.32.42-1.64,1.24-3.26,1.88-3.92,4.68-4.85,30.38,9.46,29.3,12.06-1.04,2.53-28.32-3.7-28.27-8.95.04-4.5,20.16-10.55,23.34-5.83,2.72,4.04-5.52,18.15-14.51,17.77-6.19-.27-11.05-7.33-10.26-8.43,1.44-2,21.91,15.35,29.3,9.6,3.15-2.45,3.6-8.84,1.04-11.28-5.76-5.49-29.53,6.29-28.79,12.84.13,1.11.98,2.31,1.82,2.33Z"/>
        </g>
      </g>
    </g>
  </g>
</svg>