<svg width="15" height="14" viewBox="0 0 15 14" fill="none" xmlns="http://www.w3.org/2000/svg">
<path fill-rule="evenodd" clip-rule="evenodd" d="M12.0209 3.13898C12.1491 3.24231 12.2304 3.39157 12.2469 3.55395C12.2634 3.71632 12.2138 3.87852 12.109 4.00485L6.48822 10.7743C6.43297 10.8408 6.36419 10.8952 6.2863 10.934C6.20841 10.9727 6.12315 10.9949 6.03601 10.9992C5.94887 11.0035 5.86178 10.9898 5.78036 10.9589C5.69894 10.928 5.625 10.8806 5.56329 10.8198L2.44066 7.7428C2.38101 7.68603 2.33343 7.61813 2.3007 7.54304C2.26797 7.46796 2.25074 7.38721 2.25002 7.3055C2.2493 7.22378 2.2651 7.14275 2.29651 7.06712C2.32791 6.99149 2.37428 6.92278 2.43292 6.865C2.49156 6.80721 2.56129 6.76152 2.63804 6.73058C2.71479 6.69963 2.79703 6.68406 2.87995 6.68477C2.96288 6.68548 3.04483 6.70246 3.12102 6.73471C3.19722 6.76696 3.26613 6.81385 3.32374 6.87262L5.95862 9.469L11.1422 3.22575C11.247 3.09944 11.3985 3.01934 11.5633 3.00307C11.7281 2.9868 11.8927 3.03568 12.0209 3.13898Z" fill="#7A5AF8"/>
</svg>
