<svg width="22" height="22" viewBox="0 0 22 22" fill="none" xmlns="http://www.w3.org/2000/svg">
      <path
        d="M11 13.2969C11.3797 13.2969 11.6875 12.9891 11.6875 12.6094V7.10938C11.6875 6.72969 11.3797 6.42188 11 6.42188C10.6203 6.42188 10.3125 6.72969 10.3125 7.10938V12.6094C10.3125 12.9891 10.6203 13.2969 11 13.2969Z"
        fill="#E54545"
      />
      <path
        d="M10.9997 14.4414C11.5059 14.4414 11.9163 14.8518 11.9163 15.3581C11.9163 15.8643 11.5059 16.2747 10.9997 16.2747C10.4934 16.2747 10.083 15.8643 10.083 15.3581C10.083 14.8518 10.4934 14.4414 10.9997 14.4414Z"
        fill="#E54545"
      />
      <path
        fill-rule="evenodd"
        clip-rule="evenodd"
        d="M1.14551 10.9987C1.14551 5.55639 5.55737 1.14453 10.9997 1.14453C16.442 1.14453 20.8538 5.55639 20.8538 10.9987C20.8538 16.441 16.442 20.8529 10.9997 20.8529C5.55737 20.8529 1.14551 16.441 1.14551 10.9987ZM10.9997 2.51953C6.31676 2.51953 2.52051 6.31579 2.52051 10.9987C2.52051 15.6816 6.31676 19.4779 10.9997 19.4779C15.6826 19.4779 19.4788 15.6816 19.4788 10.9987C19.4788 6.31579 15.6826 2.51953 10.9997 2.51953Z"
        fill="#E54545"
      />
    </svg>
