<svg width="22" height="22" viewBox="0 0 22 22" fill="none" xmlns="http://www.w3.org/2000/svg">
      <path
        d="M11 16.2695C11.3797 16.2695 11.6875 15.9617 11.6875 15.582V10.082C11.6875 9.70235 11.3797 9.39453 11 9.39453C10.6203 9.39453 10.3125 9.70235 10.3125 10.082V15.582C10.3125 15.9617 10.6203 16.2695 11 16.2695Z"
        fill="#2D283E"
      />
      <path
        d="M10.9997 6.41797C11.5059 6.41797 11.9163 6.82838 11.9163 7.33464C11.9163 7.84089 11.5059 8.2513 10.9997 8.2513C10.4934 8.2513 10.083 7.84089 10.083 7.33464C10.083 6.82838 10.4934 6.41797 10.9997 6.41797Z"
        fill="#2D283E"
      />
      <path
        fill-rule="evenodd"
        clip-rule="evenodd"
        d="M1.14551 10.9987C1.14551 5.55639 5.55737 1.14453 10.9997 1.14453C16.442 1.14453 20.8538 5.55639 20.8538 10.9987C20.8538 16.441 16.442 20.8529 10.9997 20.8529C5.55737 20.8529 1.14551 16.441 1.14551 10.9987ZM10.9997 2.51953C6.31676 2.51953 2.52051 6.31579 2.52051 10.9987C2.52051 15.6816 6.31676 19.4779 10.9997 19.4779C15.6826 19.4779 19.4788 15.6816 19.4788 10.9987C19.4788 6.31579 15.6826 2.51953 10.9997 2.51953Z"
        fill="#2D283E"
      />
    </svg>
