 <svg width="22" height="22" viewBox="0 0 22 22" fill="none" xmlns="http://www.w3.org/2000/svg">
      <g clip-path="url(#clip0_2421_22006)">
        <path
          d="M11 22C8.82441 22 6.69767 21.3549 4.88873 20.1462C3.07979 18.9375 1.66989 17.2195 0.83733 15.2095C0.00476613 13.1995 -0.213071 10.9878 0.211367 8.85401C0.635804 6.72022 1.68345 4.76021 3.22183 3.22183C4.76021 1.68345 6.72022 0.635804 8.85401 0.211367C10.9878 -0.213071 13.1995 0.00476613 15.2095 0.83733C17.2195 1.66989 18.9375 3.07979 20.1462 4.88873C21.3549 6.69767 22 8.82441 22 11C22 13.9174 20.8411 16.7153 18.7782 18.7782C16.7153 20.8411 13.9174 22 11 22ZM11 1.69231C9.15912 1.69231 7.35957 2.2382 5.82893 3.26094C4.29829 4.28368 3.1053 5.73735 2.40082 7.4381C1.69634 9.13886 1.51202 11.0103 1.87116 12.8158C2.2303 14.6214 3.11677 16.2798 4.41847 17.5815C5.72018 18.8832 7.37865 19.7697 9.18416 20.1289C10.9897 20.488 12.8611 20.3037 14.5619 19.5992C16.2627 18.8947 17.7163 17.7017 18.7391 16.1711C19.7618 14.6404 20.3077 12.8409 20.3077 11C20.3077 8.53145 19.3271 6.164 17.5815 4.41847C15.836 2.67294 13.4686 1.69231 11 1.69231Z"
          fill="#0F9918"
        />
        <path
          d="M9.73045 15.9073C9.61921 15.9063 9.50926 15.8834 9.4069 15.8398C9.30454 15.7962 9.21177 15.7329 9.13391 15.6535L5.2416 11.7654C5.10353 11.603 5.03182 11.3946 5.04079 11.1816C5.04976 10.9687 5.13876 10.767 5.29 10.6168C5.44124 10.4666 5.64357 10.3791 5.85657 10.3716C6.06956 10.3642 6.27753 10.4373 6.43891 10.5766L10.327 14.4646C10.4446 14.583 10.5246 14.7334 10.557 14.8971C10.5893 15.0607 10.5726 15.2303 10.5088 15.3845C10.4451 15.5387 10.3372 15.6706 10.1987 15.7636C10.0602 15.8566 9.89728 15.9066 9.73045 15.9073Z"
          fill="#0F9918"
        />
        <path
          d="M9.73062 15.9063C9.56291 15.9064 9.39895 15.8567 9.25955 15.7635C9.12014 15.6702 9.01159 15.5377 8.94767 15.3826C8.88374 15.2276 8.86734 15.057 8.90053 14.8926C8.93372 14.7283 9.01501 14.5774 9.13408 14.4593L15.5606 8.03703C15.7194 7.87826 15.9347 7.78906 16.1593 7.78906C16.3838 7.78906 16.5992 7.87826 16.7579 8.03703C16.9167 8.19581 17.0059 8.41115 17.0059 8.63569C17.0059 8.86023 16.9167 9.07557 16.7579 9.23434L10.3272 15.6524C10.2493 15.7319 10.1565 15.7952 10.0542 15.8387C9.9518 15.8823 9.84186 15.9052 9.73062 15.9063Z"
          fill="#0F9918"
        />
      </g>
      <defs>
        <clipPath id="clip0_2421_22006">
          <rect width="22" height="22" fill="white" />
        </clipPath>
      </defs>
    </svg>
 
