<svg width="22" height="22" viewBox="0 0 22 22" fill="none" xmlns="http://www.w3.org/2000/svg">
      <g clip-path="url(#clip0_2424_22085)">
        <path
          d="M15.616 14.3399C17.6123 12.9016 18.9166 10.5575 18.9166 7.91634C18.9166 3.55059 15.366 0 11.0003 0C6.63452 0 3.08398 3.55059 3.08398 7.91634C3.08398 10.5575 4.38829 12.9016 6.38456 14.3399L3.81945 19.51C3.71078 19.7274 3.73975 19.9847 3.89914 20.173C4.05494 20.3578 4.30131 20.4375 4.5368 20.3687L6.35195 19.8506L7.03669 21.6078C7.12367 21.8324 7.33378 21.9919 7.5765 21.9991C7.69246 21.9991 7.98226 21.9991 8.15257 21.6622L11.0003 15.9161L13.8516 21.6622C13.9567 21.8687 14.1668 21.9991 14.3987 21.9991C14.4059 21.9991 14.8335 22.0389 14.9675 21.6078L15.6522 19.8506L17.4674 20.3687C17.7029 20.4339 17.9492 20.3615 18.105 20.173C18.2608 19.9883 18.2898 19.7274 18.1847 19.51L15.616 14.3399ZM7.67071 19.8759L7.28664 18.8869C7.17433 18.5934 6.84827 18.4376 6.55118 18.5246L5.53309 18.8144L7.43516 14.9776C8.14529 15.3363 8.91695 15.5972 9.73217 15.7276L7.67071 19.8759ZM4.30854 7.91634C4.30854 4.22446 7.31203 1.22461 11.0003 1.22461C14.6885 1.22461 17.692 4.22446 17.692 7.91634C17.692 11.6082 14.6885 14.6081 11.0003 14.6081C7.31203 14.6081 4.30854 11.6082 4.30854 7.91634ZM15.453 18.5209C15.1487 18.4339 14.8298 18.5934 14.7175 18.8832L14.3335 19.8723L12.2756 15.7203C13.0908 15.5899 13.8589 15.329 14.5726 14.9703L16.4711 18.8071L15.453 18.5209Z"
          fill="#2D283E"
        />
        <path
          d="M11.3018 3.31461L12.2334 6.17835H15.2458C15.3186 6.17882 15.3894 6.20213 15.4482 6.24499C15.5069 6.28785 15.5507 6.34807 15.5733 6.41714C15.5958 6.4862 15.596 6.5606 15.5739 6.62979C15.5517 6.69899 15.5083 6.75947 15.4498 6.80267L13.0154 8.56706L13.947 11.424C13.9706 11.494 13.9711 11.5697 13.9484 11.6401C13.9258 11.7104 13.8812 11.7717 13.8212 11.8149C13.7611 11.8581 13.6888 11.881 13.6148 11.8803C13.5408 11.8796 13.4689 11.8552 13.4098 11.8108L10.9754 10.0464L8.54093 11.8108C8.48177 11.8552 8.40993 11.8796 8.33591 11.8803C8.26189 11.881 8.18958 11.8581 8.12955 11.8149C8.06952 11.7717 8.02493 11.7104 8.00229 11.6401C7.97965 11.5697 7.98015 11.494 8.00372 11.424L8.93533 8.56706L6.50091 6.80267C6.44239 6.75947 6.39897 6.69899 6.37681 6.62979C6.35465 6.5606 6.35487 6.4862 6.37744 6.41714C6.40001 6.34807 6.44378 6.28785 6.50255 6.24499C6.56132 6.20213 6.63212 6.17882 6.70491 6.17835H9.71734L10.6489 3.31461C10.6695 3.24413 10.7125 3.18222 10.7713 3.13817C10.8302 3.09412 10.9018 3.07031 10.9754 3.07031C11.0489 3.07031 11.1205 3.09412 11.1794 3.13817C11.2382 3.18222 11.2812 3.24413 11.3018 3.31461Z"
          stroke="#2D283E"
          stroke-width="1.1"
          stroke-linecap="round"
          stroke-linejoin="round"
        />
      </g>
      <defs>
        <clipPath id="clip0_2424_22085">
          <rect width="22" height="22" fill="white" />
        </clipPath>
      </defs>
    </svg>
