<svg width="8" height="9" viewBox="0 0 8 9" fill="none" xmlns="http://www.w3.org/2000/svg">
<g clip-path="url(#clip0_1324_9756)">
<path d="M4 1.5C3.50964 1.49933 3.0361 1.73771 2.66894 2.17005C2.44989 2.42934 2.24222 2.6815 2.10624 2.86238L0.18166 5.37863C0.0632192 5.54632 -0.00186207 5.76845 4.0367e-05 5.99852C0.00194281 6.22859 0.0706812 6.44876 0.191866 6.61295C0.313051 6.77713 0.477288 6.8726 0.650193 6.87936C0.823099 6.88612 0.991269 6.80366 1.1195 6.64923L3.04876 4.12852C3.1747 3.9619 3.36227 3.73558 3.55721 3.50481C3.67958 3.36123 3.83715 3.282 4.00033 3.282C4.16352 3.282 4.32109 3.36123 4.44346 3.50481C4.63773 3.73469 4.8253 3.96101 4.94722 4.12229L6.8805 6.64923C7.00873 6.80366 7.1769 6.88612 7.34981 6.87936C7.52271 6.8726 7.68695 6.77713 7.80813 6.61295C7.92932 6.44876 7.99806 6.22859 7.99996 5.99852C8.00186 5.76845 7.93678 5.54632 7.81834 5.37863L5.89041 2.85792C5.75644 2.67972 5.55078 2.43023 5.3324 2.17273C4.96529 1.73879 4.49112 1.49938 4 1.5Z" fill="black"/>
</g>
<defs>
<clipPath id="clip0_1324_9756">
<rect width="8" height="8" fill="white" transform="translate(0 0.5)"/>
</clipPath>
</defs>
</svg>
