<svg width="28" height="26" viewBox="0 0 28 26" fill="none" xmlns="http://www.w3.org/2000/svg">
<path d="M19.9559 1C18.7365 1.01993 17.5437 1.37753 16.498 2.03671C15.4522 2.69589 14.5906 3.63329 14 4.75426C13.4094 3.63329 12.5478 2.69589 11.502 2.03671C10.4563 1.37753 9.26346 1.01993 8.04407 1C6.10021 1.08873 4.26877 1.98209 2.94989 3.4849C1.631 4.98772 0.931876 6.97784 1.00524 9.02047C1.00524 14.1934 6.18798 19.843 10.5347 23.6735C11.5052 24.5303 12.7323 25 14 25C15.2677 25 16.4948 24.5303 17.4653 23.6735C21.812 19.843 26.9948 14.1934 26.9948 9.02047C27.0681 6.97784 26.369 4.98772 25.0501 3.4849C23.7312 1.98209 21.8998 1.08873 19.9559 1Z" stroke="#7A5AF8" stroke-width="2"/>
</svg>
