<svg width="25" height="26" viewBox="0 0 25 26" fill="none" xmlns="http://www.w3.org/2000/svg">
<path d="M24.6949 24.0798L18.4772 17.6549C20.1716 15.5135 21.0047 12.7811 20.8041 10.0228C20.6036 7.26452 19.3847 4.69141 17.3997 2.8357C15.4147 0.979997 12.8153 -0.0163281 10.1394 0.0528104C7.46336 0.121949 4.91546 1.25126 3.02265 3.20716C1.12985 5.16305 0.0369681 7.79589 -0.02994 10.5611C-0.0968482 13.3263 0.867338 16.0122 2.66318 18.0634C4.45903 20.1146 6.94913 21.3741 9.61843 21.5814C12.2877 21.7886 14.932 20.9278 17.0043 19.1769L23.222 25.6018C23.4185 25.7979 23.6816 25.9064 23.9547 25.904C24.2278 25.9015 24.4891 25.7883 24.6822 25.5887C24.8754 25.3892 24.9849 25.1192 24.9873 24.837C24.9897 24.5547 24.8847 24.2828 24.6949 24.0798ZM10.4168 19.4589C8.76863 19.4589 7.15746 18.9539 5.78705 18.0077C4.41664 17.0615 3.34854 15.7166 2.71781 14.1431C2.08708 12.5696 1.92205 10.8382 2.2436 9.16784C2.56514 7.49744 3.35881 5.96309 4.52425 4.75881C5.68969 3.55452 7.17455 2.73439 8.79105 2.40213C10.4076 2.06987 12.0831 2.2404 13.6058 2.89215C15.1286 3.54391 16.43 4.64761 17.3457 6.0637C18.2614 7.47979 18.7501 9.14466 18.7501 10.8478C18.7477 13.1308 17.8689 15.3196 16.3066 16.9339C14.7444 18.5483 12.6262 19.4563 10.4168 19.4589Z" fill="#7A5AF8"/>
</svg>
